<?xml version="1.0" encoding="utf-8"?>
<!-- Generator: Adobe Illustrator 22.1.0, SVG Export Plug-In . SVG Version: 6.00 Build 0)  -->
<svg version="1.1" id="Layer_1" xmlns="http://www.w3.org/2000/svg" xmlns:xlink="http://www.w3.org/1999/xlink" x="0px" y="0px"
	 width="597px" height="352px" viewBox="0 0 597 352" style="enable-background:new 0 0 597 352;" xml:space="preserve">
<style type="text/css">
	.st0{fill:none;stroke:#307EB2;stroke-width:6;stroke-miterlimit:10;}
	.st1{fill:#928782;}
	.st2{fill:#F1D6D5;}
	.st3{fill:#D7D3CB;}
	.st4{fill:#BDB7B3;}
	.st5{fill:#5998C2;}
	.st6{fill:#6F6F70;}
	.st7{fill:#484748;}
	.st8{fill:#FAFBFB;}
	.st9{opacity:0.4;}
	.st10{fill:#C6C6C5;}
	.st11{fill:#E6E6E6;}
	.st12{fill:#999999;}
	.st13{fill:#808080;}
	.st14{fill:#83B2D1;}
	.st15{fill:none;stroke:#D68928;stroke-width:6;stroke-miterlimit:10;}
	.st16{fill:#E2ADAA;}
	.st17{fill:none;stroke:#999999;stroke-width:2;stroke-linecap:round;stroke-linejoin:round;stroke-miterlimit:10;}
	.st18{fill:#FFFFFF;stroke:#484748;stroke-linejoin:round;stroke-miterlimit:10;}
	.st19{fill:#307EB2;}
	.st20{fill:#D68928;}
</style>
<path class="st0" d="M180,81v54c0,5,2.9,9,6.5,9H525"/>
<path class="st0" d="M46,102v45.4c0,4.2,4,7.6,9,7.6h470"/>
<g>
	<g>
		<path class="st1" d="M96.3,19.1c0.6-5.1,1.1-12.2,1.1-12.2s-0.2-0.4-0.5-0.6c-0.3-0.3-0.7-0.5-0.7-0.5s-0.3-0.2-0.7-0.2
			c-0.5,0-1,0.1-1,0.1s-2.3,0.9-4.3,2.6c-3.1,2.6-6.4,6.2-6.4,6.2l0.5,1l0.5-0.4v1.1l0.8-0.7v0.7l-0.2,0.8c0,0,1.4-1.4,1.4-1.1
			c0,0.2-0.8,1.8-0.8,1.8s1.1-1.1,1.1-0.9c0,0.2-0.7,1.3-0.7,1.3s1.6-0.5,1.6-0.4c0,0.1-0.2,0.9-0.2,0.9l0.9-0.1l0,1.1l2,0l-0.5,0.9
			l0.7,0.5l0,1l0.9,0.4l0.7,1.7l1.4-0.7l-0.1,1.8l0.5,0.7l0.1,1.1l0.7,0.3c-0.1-0.4-0.1-1-0.1-1.5c0-0.7,0.2-1.4,0.2-1.4
			S95.9,22,96.3,19.1z"/>
	</g>
	<g>
		<polygon class="st2" points="84.8,15 87.3,11.9 92.3,7.5 93.6,6.6 95.2,6.2 96.1,6.7 96.7,7.8 96.4,11 95.9,16 95.4,19.7 
			94.5,24.4 94.3,25.7 92.9,25.2 90.9,22.3 89.9,20.9 87.8,18.5 87.1,17.7 86.3,16.8 84.8,15.6 		"/>
	</g>
	<g>
		<path class="st1" d="M62.6,23.8l0.3-0.9l0.5,0.2l0.1-0.7l0.5,0.1l-0.1-3.3l1.4,1.6L65,19.1l0.8,0.7l0.4-1.4l0.7,0.6l0.4-1.6
			l0.6,0.5l0.2-0.5l0.5,0.3l0.4-0.7l1,0.3l0.7-0.4l0.4-1.8l1,0.6l0.3-0.7h0.2l0.4-1.1l0.4-0.3c0,0-2.7-3.7-5-6.2
			C66.8,5.8,65.3,5,65.3,5s-1.6-1-2.5-1c-1,0.1-1.2,1.3-1.2,1.3s-0.3,2.2-0.4,4.7c-0.2,4.1-0.2,9.4-0.2,9.4s0.2,1.4,0.3,2.8
			c0,1.4-0.1,2.9-0.1,2.9l0.6-1.3H62.6z"/>
	</g>
	<g>
		<polygon class="st2" points="63.1,4.9 64,5.1 65.6,6 67.4,7.6 69.9,10.4 71.8,13 72.4,14.1 72.6,15 72.4,15 72.1,15.7 71,15.1 
			70.7,16.9 70,17.3 68.9,17.1 68.5,17.7 68.1,17.5 67.8,18 67.2,17.4 66.8,19 66.1,18.4 65.8,19.9 65,19.1 65.2,20.9 64,22.6 
			63.4,22.4 63.3,23.1 62.9,23 62.6,23.8 61.9,23.8 61.9,23.3 61.8,21.5 61.8,18.8 61.8,11 62,7.5 62.1,5.8 62.5,5.2 		"/>
	</g>
	<g>
		<path class="st3" d="M95.1,27.1l-0.8-1.4l-0.5-0.7l-2-2.8l-1-1.4l-0.7-0.5l-1.4-1.9c0,0-0.7-0.6-0.7-0.8c0-0.1-0.9-0.7-0.9-0.9
			c0-0.2-1.5-1.2-1.5-1.2L84.8,15l-1-0.5c0,0-2.6-1-5.2-1.1c-2.6-0.2-5.2,0.4-5.2,0.4L73,13.9l-2,1.1l-3.8,2.3v0
			c-2.2,1.2-3.9,3.1-4.9,5.4l-0.4,1l-0.6,1.3c0,0,0,3.6,0.8,6.5c0.6,2.4,2,4.2,2,4.2s0.1,0.6,0,1.1c-0.1,0.5-0.5,0.9-0.5,0.9
			s-2.3,2.1-3.2,3.7c-2,3.7-3.6,8.7-3.6,8.7s-1.6,0.9-2.8,2.1c-1,0.9-1.8,2.1-1.8,2.1s-3,2-5.5,4.8c-3.1,3.4-5.9,7.6-5.9,7.6
			s-1.9,1.9-3.6,3.9c-1.8,2.1-3.2,4.3-3.2,4.3l-5.7,7.7c0,0-2.7,2.2-4.3,5.1c-1.8,3.3-2.7,7.2-2.7,7.2s-0.9,2.9-1.8,5.1
			c-0.7,1.6-1.4,2.7-1.4,2.7s-0.4,0.8-0.8,1l0.2,0.4l0.7,2.6l0.9,1l3.2,0l-0.5,0.6l3.4-0.2l0,0.4l1.5,0.4c0,0,1.1,0,1.3,0
			c0.2,0,3.6-0.1,3.6-0.1s-0.8,0.4-0.4,0.4c0.4,0,2.8-0.4,2.8-0.4l1.6-0.1c0,0-1.1,0.5-0.8,0.5c0.3,0,4.9,0.7,4.9,0.7l-0.4,0.2
			l1.5,1.2c0,0,0.8,0.7,1.3,0.7c0.5,0,1.3,0,1.3,0l0.2,0.6l0.9,0.1l0.1,0.4c0,0-0.2,0.8-0.3,1c-0.1,0.1,0.7,0.7,0.7,0.7l-0.9,0.7
			c0,0,4.8-0.2,8.2-0.5c2.7-0.2,5.3-0.8,5.3-0.8s0.2,0.7,0.2,1.3c0.9-0.4,2.8-1.2,4.8-1.6c2.1-0.4,4.4-0.4,5.4-0.3
			c-0.5-1.2-1.3-3.3-1.7-5.3c-0.6-3.1-0.3-5.9-0.3-5.9s1.6-1.4,2.7-3.3c1-1.9,1.6-4.4,1.6-4.4s0.4,4.5,0.3,8.9
			c-0.1,4.1-0.8,8.1-0.8,8.1s0,1,0.1,2.3c1.1-0.4,3.3-1.1,5.5-1.4c1.5-0.2,4.6,1.2,5.7,1.3c-0.5-0.3-2.4-1.7-2.4-1.7
			s-0.3-4.5,0.5-10.1c1.2-8.7,3.8-19.9,3.8-19.9s1.5-3.6,2.7-7.4c1.5-4.5,2.7-9.3,2.7-9.3s1.9-4.4,2-9.5c0.1-5.8-1.7-12.3-1.7-12.3
			l0-1.5c0,0,0-0.9,0.4-1.6c0.3-0.6,0.9-1.1,0.9-1.1s2.5-1.9,3.9-4.9c1.4-3,1.7-7.2,1.7-7.2S95.1,27.3,95.1,27.1z"/>
		<path class="st3" d="M43.8,115.8c-0.1,0-0.2-0.1-0.2-0.1c0-0.1,0-0.2,0.1-0.2l0.7-0.5c-0.4-0.3-0.6-0.5-0.6-0.7
			c0-0.1,0-0.2,0.1-0.2c0.1-0.1,0.2-0.5,0.2-0.8l0-0.3l-0.7-0.1c-0.1,0-0.1-0.1-0.2-0.1l-0.2-0.4c-0.3,0-0.8,0-1.1,0
			c-0.5,0-1.3-0.7-1.4-0.8l-1.5-1.2c-0.1,0-0.1-0.1-0.1-0.2c0,0,0-0.1,0-0.1c-1.8-0.3-4.1-0.6-4.3-0.6c-0.2,0-0.3-0.1-0.3-0.2
			c0-0.1,0-0.2,0.2-0.3l-0.6,0c-0.3,0-2.4,0.4-2.8,0.4c-0.2,0-0.3-0.1-0.3-0.2c0-0.1,0-0.1,0-0.2c-1.3,0.1-2.8,0.1-3,0.1
			c-0.1,0-0.7,0-1.3,0c0,0,0,0,0,0l-1.5-0.4c-0.1,0-0.2-0.1-0.2-0.2l0-0.2l-3.2,0.2c-0.1,0-0.2,0-0.2-0.1c0-0.1,0-0.2,0-0.2l0.2-0.3
			l-2.7,0c-0.1,0-0.1,0-0.1-0.1l-0.9-1c0,0,0-0.1,0-0.1l-0.7-2.5l-0.2-0.4c-0.1-0.1,0-0.2,0.1-0.3c0.3-0.2,0.6-0.8,0.7-1
			c0,0,0,0,0,0c0,0,0.7-1.1,1.4-2.7c0.9-2.1,1.8-4.9,1.8-5.1c0-0.2,0.9-4.1,2.7-7.2c1.5-2.7,4-4.9,4.3-5.1l5.7-7.7
			c0,0,1.5-2.2,3.2-4.3c1.5-1.9,3.4-3.7,3.6-3.9c0.2-0.3,2.9-4.4,5.9-7.6c2.4-2.6,5.2-4.6,5.5-4.8c0.1-0.2,0.9-1.2,1.8-2.1
			c1.1-1,2.5-1.8,2.8-2c0.2-0.6,1.7-5.3,3.6-8.7c0.9-1.7,3.2-3.7,3.2-3.8l0,0c0,0,0.3-0.3,0.4-0.8c0.1-0.4,0-0.9,0-1
			c-0.2-0.3-1.4-1.9-2-4.2c-0.7-2.8-0.8-6.5-0.8-6.5c0,0,0-0.1,0-0.1l0.6-1.3l0.4-1c1-2.3,2.8-4.3,5-5.5l3.8-2.3l2-1.1l0.4-0.3
			c0,0,0,0,0.1,0c0,0,2.6-0.6,5.2-0.4c2.6,0.2,5.2,1.1,5.3,1.2c0,0,0,0,0,0l1,0.5l0.8,0.4c0,0,0,0,0,0c1.4,0.9,1.6,1.2,1.6,1.4
			c0.1,0.1,0.3,0.2,0.4,0.3c0.3,0.2,0.5,0.4,0.5,0.5c0.1,0.1,0.4,0.4,0.6,0.6c0,0,0,0,0,0l1.4,1.9l0.7,0.5c0,0,0,0,0,0l1,1.4l2,2.8
			l0.5,0.7c0,0,0,0,0,0l0.8,1.4c0,0,0,0,0,0.1c0,0.2,0.1,0.4,0.1,0.4c0,0,0,0,0,0.1c0,0-0.3,4.3-1.8,7.3c-1.4,3-3.9,4.9-4,5
			c0,0-0.5,0.4-0.8,1c-0.3,0.6-0.3,1.4-0.3,1.5l0,1.5c0.1,0.4,1.8,6.8,1.7,12.4c-0.1,4.9-1.9,9.3-2,9.5c-0.1,0.3-1.3,5-2.7,9.3
			c-1.2,3.7-2.6,7.2-2.7,7.4c-0.1,0.5-2.5,11.4-3.7,19.9c-0.7,5-0.5,9.3-0.5,9.9c0.4,0.3,1.9,1.4,2.3,1.7c0.1,0,0.1,0.1,0.1,0.2
			c0,0.1-0.1,0.2-0.2,0.1c-0.4,0-1.1-0.3-1.8-0.5c-1.3-0.4-2.9-0.9-3.8-0.8c-2.1,0.3-4.3,1-5.4,1.4c-0.1,0-0.1,0-0.2,0
			c-0.1,0-0.1-0.1-0.1-0.2c-0.1-1.3-0.1-2.3-0.1-2.3c0,0,0,0,0,0c0,0,0.7-4,0.8-8c0.1-3-0.1-6-0.2-7.6c-0.3,0.9-0.7,2.1-1.3,3.2
			c-1,1.8-2.3,3.1-2.6,3.3c0,0.5-0.3,3.1,0.3,5.8c0.4,1.9,1.1,3.9,1.7,5.2c0,0.1,0,0.1,0,0.2c0,0.1-0.1,0.1-0.2,0.1
			c-1.1,0-3.3-0.1-5.4,0.3c-2,0.4-3.8,1.1-4.8,1.5c-0.1,0-0.1,0-0.2,0c-0.1,0-0.1-0.1-0.1-0.2c0-0.4-0.1-0.8-0.1-1
			c-0.7,0.1-2.8,0.5-5.1,0.7C48.7,115.6,43.9,115.8,43.8,115.8C43.8,115.8,43.8,115.8,43.8,115.8z M44.3,114.3
			c0.1,0.1,0.3,0.3,0.6,0.5c0.1,0,0.1,0.1,0.1,0.2c0,0.1,0,0.1-0.1,0.2l-0.4,0.3c1.5-0.1,4.9-0.3,7.5-0.5c2.7-0.2,5.2-0.8,5.2-0.8
			c0.1,0,0.2,0,0.2,0.1c0,0,0.1,0.5,0.2,1c1-0.4,2.7-1.1,4.6-1.4c1.9-0.4,4-0.4,5.2-0.3c-0.5-1.3-1.2-3.2-1.6-5
			c-0.6-3-0.3-5.9-0.3-6c0-0.1,0-0.1,0.1-0.1c0,0,1.6-1.4,2.6-3.3c1-1.9,1.5-4.3,1.5-4.3c0-0.1,0.1-0.2,0.2-0.2
			c0.1,0,0.2,0.1,0.2,0.2c0,0,0.4,4.6,0.3,8.9c-0.1,3.9-0.8,7.8-0.8,8.1c0,0.1,0,1,0.1,2c1.2-0.4,3.2-1.1,5.3-1.3
			c1-0.1,2.6,0.4,3.9,0.8c0.2,0.1,0.5,0.1,0.7,0.2c-0.7-0.5-1.5-1.1-1.5-1.1c0,0-0.1-0.1-0.1-0.2c0,0-0.3-4.6,0.5-10.1
			c1.2-8.6,3.7-19.8,3.8-19.9c0,0,0,0,0,0c0,0,1.5-3.6,2.7-7.4c1.4-4.4,2.7-9.2,2.7-9.3c0,0,0,0,0,0c0,0,1.9-4.4,2-9.4
			c0.1-5.7-1.7-12.2-1.7-12.3c0,0,0,0,0,0l0-1.5c0,0,0,0,0,0c0,0,0.1-0.9,0.4-1.6c0.3-0.7,0.9-1.1,0.9-1.1c0,0,2.5-1.9,3.9-4.8
			c1.3-2.8,1.7-6.8,1.7-7.1c0-0.1,0-0.2-0.1-0.3l-0.8-1.4l-0.5-0.7l-2-2.8l-0.9-1.4l-0.7-0.5c0,0,0,0,0,0l-1.4-1.9
			c-0.6-0.5-0.7-0.8-0.7-0.9c-0.1-0.1-0.2-0.2-0.3-0.3c-0.3-0.3-0.5-0.4-0.6-0.6c-0.1-0.2-0.8-0.7-1.4-1l-0.8-0.4l-1-0.5
			c-0.2-0.1-2.7-0.9-5.2-1.1c-2.4-0.2-4.8,0.3-5.1,0.4l-0.4,0.3l-2,1.2l-3.8,2.3c-2.1,1.2-3.8,3.1-4.8,5.3l-0.4,1l-0.6,1.2
			c0,0.4,0.1,3.8,0.8,6.4c0.6,2.4,1.9,4.1,1.9,4.1c0,0,0,0.1,0,0.1c0,0,0.1,0.7,0,1.2c-0.1,0.5-0.5,0.9-0.6,1c0,0-2.3,2.1-3.2,3.7
			c-2,3.6-3.6,8.6-3.6,8.7c0,0,0,0.1-0.1,0.1c0,0-1.6,0.9-2.8,2c-1,0.9-1.8,2-1.8,2c0,0,0,0-0.1,0.1c0,0-3,2.1-5.5,4.8
			c-3,3.3-5.8,7.5-5.8,7.6c0,0,0,0,0,0c0,0-1.9,1.9-3.6,3.9C35.5,72.8,34,75,34,75l-5.7,7.7c0,0,0,0,0,0c0,0-2.6,2.2-4.2,5
			c-1.8,3.2-2.6,7.1-2.6,7.1c0,0,0,0,0,0c0,0-0.9,2.9-1.8,5.1c-0.7,1.6-1.4,2.6-1.4,2.7c0,0.1-0.4,0.6-0.7,1l0.2,0.3c0,0,0,0,0,0
			l0.7,2.5l0.8,0.9l3.1,0c0.1,0,0.2,0,0.2,0.1c0,0.1,0,0.2,0,0.2l-0.2,0.2l2.9-0.2c0.1,0,0.1,0,0.2,0.1c0,0,0.1,0.1,0.1,0.2l0,0.2
			l1.3,0.3c0.3,0,1.2,0,1.4,0.1c0.2,0,2.3-0.1,3.6-0.1c0.1,0,0.2,0.1,0.2,0.2c0,0.1,0,0.2-0.1,0.2c0.7-0.1,1.7-0.2,2.2-0.3
			c0,0,0,0,0,0l1.6-0.1c0.1,0,0.2,0.1,0.2,0.2c0,0.1,0,0.2-0.1,0.2c-0.1,0.1-0.3,0.1-0.4,0.2c1.2,0.2,4,0.6,4.4,0.6
			c0.1,0,0.2,0.1,0.2,0.2c0,0.1,0,0.2-0.1,0.2l-0.1,0.1l1.3,1.1c0.3,0.3,0.9,0.7,1.2,0.7c0.4,0,1.3,0,1.3,0c0.1,0,0.2,0.1,0.2,0.1
			l0.2,0.5l0.7,0.1c0.1,0,0.2,0.1,0.2,0.2l0.1,0.4c0,0,0,0.1,0,0.1C44.5,113.6,44.4,114.1,44.3,114.3z M44.2,114.4
			C44.2,114.4,44.2,114.4,44.2,114.4C44.2,114.4,44.2,114.4,44.2,114.4z"/>
	</g>
	<g>
		<path class="st4" d="M57.3,114.3l-0.5-1.9l-0.5-1.9l-1-3.8l-0.5-1.9c-0.1-0.3-0.2-0.6-0.2-0.9l-0.3-0.9l-1.1-3.8l-2.1-7.6
			l-0.5-1.9l-0.1-0.2l0-0.1l0-0.1l0-0.1l-0.1-0.5l-0.3-0.9l-1.2-3.7l0-0.1l0-0.1l0.4-4.7l0.2-2.3l0.2-2.3L50,70l0.4-4.7l0,0l0,0
			l0.8-2.4l0.8-2.4l0.8-2.4l0.8-2.4L53,58.1l-0.7,2.4l-0.7,2.4l-0.7,2.4l0,0L50.5,70l-0.3,4.7L50,77l-0.2,2.3L49.5,84l0-0.1l1.2,3.7
			l0.3,0.9l0.1,0.5l0,0.1l0,0.1l0,0.1l0.1,0.2l0.5,1.9l2.1,7.6l1,3.8l0.3,0.9c0.1,0.3,0.1,0.6,0.2,1l0.4,1.9l0.8,3.8l0.4,1.9
			L57.3,114.3z"/>
	</g>
	<g>
		<path class="st4" d="M65.8,102.6l-0.4-1.8L65,99l-0.4-1.8l-0.4-1.8c-0.3-1.2-0.5-2.4-0.8-3.6l-0.7-3.6L62,84.6L61.3,81l-0.7-3.6
			l-0.1-0.5l0-0.2l0-0.1l0,0l0,0l0,0l0-0.1l-0.1-0.9L60,73.7l0,0l0,0l-0.1-2.2l-0.1-1.1l0-0.1l0,0l0,0l0-0.1l0-0.3l0-0.5
			c0-1.4,0-2.9,0.1-4.3l0,0l0,0l0.5-1.9l0.5-1.9l0.5-1.9c0.2-0.6,0.4-1.3,0.5-1.9c-0.1,0.6-0.3,1.3-0.4,1.9l-0.4,1.9l-0.4,1.9
			l-0.5,1.9l0,0c0,1.4,0,2.9,0.1,4.3l0,0.5l0,0.3l0,0.1l0,0l0,0c0,0,0,0,0,0l0,0l0,0l0,0l0,0.1l0.1,1.1l0.1,2.1l0,0l0.2,1.8l0.1,0.9
			l0,0.1l0,0.1l0,0.2l0.1,0.5l0.7,3.6l0.7,3.6l0.7,3.6l0.7,3.6c0.2,1.2,0.4,2.4,0.7,3.6l0.3,1.8l0.3,1.8l0.3,1.8L65.8,102.6z"/>
	</g>
	<g>
		<path class="st4" d="M70,94.9c0.3-0.5,0.5-1,0.8-1.5l0.8-1.5l0.8-1.5l0.4-0.7c0.1-0.2,0.2-0.5,0.4-0.7c0.5-1,1-2,1.4-3l0.7-1.5
			l0.7-1.5l0,0l0.9-2.3l0.9-2.3c0.3-0.8,0.6-1.5,0.9-2.3l0.9-2.3l0,0l0.4-1.3l0.4-1.3l0.8-2.7l0,0l0.6-2.9l0.6-2.9l0,0l0,0l0.7-2.3
			l0.4-1.2l0.4-1.2L83.5,59l-0.3,1.2l-0.6,2.4l0,0l-0.5,2.9l-0.5,2.9l0,0l0,0l-0.8,2.7l-0.4,1.4l-0.4,1.4l0,0l0,0l-0.9,2.3
			c-0.3,0.8-0.6,1.5-0.9,2.3l-0.9,2.3l-0.9,2.3l0,0l0,0l-0.8,1.5l-0.8,1.5c-0.5,1-1,2-1.5,3c-0.1,0.2-0.2,0.5-0.4,0.7l-0.4,0.7
			L71.7,92l-0.8,1.4C70.6,93.9,70.3,94.4,70,94.9z"/>
	</g>
	<g>
		<path class="st1" d="M64.5,26.7c3.8-5.7,11.8-10.4,18.5-8c2.5,0.9,7.5,4.1,8.5,6.9c1.4,4-1.3,5.7-3.7,9c-3.6,5-7.1,9.9-13.5,6.6
			C70.3,39.1,64,30.8,64.5,26.7z"/>
	</g>
	<g>
		<path class="st1" d="M62.3,114.1c-2,0.4-3.9,1.1-4.8,1.6c0,0,0,0,0,0c0,0.5-0.2,0.9-0.2,0.9s-0.4,1.9-0.1,3.1
			c0.4,1.3,1.6,1.9,1.6,1.9s2.5,0.7,5.1,0.6c2.5-0.1,5.1-0.8,5.1-0.8s1.2-1,1-2.1c-0.2-1.9-1.8-4.4-1.8-4.4s-0.2-0.4-0.5-1.1
			C66.7,113.7,64.4,113.7,62.3,114.1z"/>
	</g>
	<g>
		<path class="st1" d="M75,112.7c-2.2,0.3-4.4,1-5.5,1.4c0.1,0.9,0.3,2,0.6,2.9c0.6,1.7,2.1,2.7,2.1,2.7s2.5,0.7,5,0.6
			c2.4,0,4.9-0.7,4.9-0.7s1.1-2.4,0-4.5c-0.5-0.9-2-1.9-3-2.4C78,112.6,76.5,112.5,75,112.7z"/>
	</g>
	<g>
		<ellipse class="st5" cx="72" cy="26.6" rx="2.6" ry="2.6"/>
		<path class="st6" d="M72,29.3c-1.5,0-2.7-1.2-2.7-2.7s1.2-2.7,2.7-2.7c1.5,0,2.7,1.2,2.7,2.7S73.5,29.3,72,29.3z M72,24.2
			c-1.4,0-2.5,1.1-2.5,2.4c0,1.3,1.1,2.4,2.5,2.4s2.5-1.1,2.5-2.4C74.4,25.3,73.3,24.2,72,24.2z"/>
	</g>
	<g>
		<ellipse class="st5" cx="85.7" cy="27.1" rx="2.6" ry="2.6"/>
		<path class="st6" d="M85.7,29.8c-1.5,0-2.7-1.2-2.7-2.7s1.2-2.7,2.7-2.7c1.5,0,2.7,1.2,2.7,2.7S87.2,29.8,85.7,29.8z M85.7,24.7
			c-1.4,0-2.5,1.1-2.5,2.4c0,1.3,1.1,2.4,2.5,2.4s2.5-1.1,2.5-2.4C88.1,25.7,87,24.7,85.7,24.7z"/>
	</g>
	<g>
		<ellipse class="st7" cx="86.1" cy="26.9" rx="0.8" ry="1.5"/>
	</g>
	<g>
		<ellipse class="st7" cx="72.3" cy="26.3" rx="0.8" ry="1.5"/>
	</g>
	<g>
		<circle class="st8" cx="70.9" cy="25.5" r="0.5"/>
	</g>
	<g>
		<circle class="st8" cx="84.7" cy="25.9" r="0.5"/>
	</g>
	<g>
		<ellipse class="st8" cx="73" cy="27.5" rx="0.4" ry="0.4"/>
	</g>
	<g>
		<circle class="st8" cx="86.9" cy="28" r="0.5"/>
	</g>
	<g>
		<path class="st7" d="M80.2,37.9c-0.5,0-1-0.1-1.3-0.6c-0.2-0.3-0.4-0.7-0.4-1c-0.1,0.3-0.3,0.6-0.6,0.9c-0.8,1.1-2.2,0.5-2.2,0.5
			c-0.1,0-0.1-0.1-0.1-0.2c0-0.1,0.1-0.1,0.2-0.1c0,0,1.2,0.5,1.9-0.4l0,0c0.6-0.5,0.7-1.4,0.7-1.4l0.3,0c0,0,0,1.1,0.5,1.6l0,0
			c0.6,0.9,2,0.3,2,0.3c0.1,0,0.2,0,0.2,0.1c0,0.1,0,0.2-0.1,0.2C81.2,37.8,80.7,37.9,80.2,37.9z"/>
	</g>
	<g>
		<path class="st1" d="M44.6,113.2c-3.5-4.1-9-4.1-14.1-4.6c-2.7-0.2-5.6-0.4-8.3-0.9c-3.3-0.6-4.8-0.9-4.8-4.6
			c-2.5,1.9-9.9,7-7.3,11.1c2.2,3.5,10.4,3.5,13.8,3.8C27.7,118.2,46.6,118.9,44.6,113.2z"/>
	</g>
	<g>
		<polygon class="st1" points="65.9,107.3 66.9,107.5 67.6,108 68.6,109.1 69.1,109.7 69.7,110.4 69.4,111.8 69.6,114.1 67.7,113.7 
			67,112.1 66.3,109.6 		"/>
	</g>
	<g>
		<path class="st2" d="M76.4,33.9L76.4,33.9c0.1,0.3,0.2,0.4,0.4,0.5l0.5,0.3c0.2,0.1,0.3,0.2,0.3,0.4l0.1,0.2
			c0.1,0.3,0.3,0.4,0.6,0.4l0.6,0c0.3,0,0.6-0.2,0.6-0.5l0.1-0.3c0.1-0.2,0.2-0.4,0.4-0.4l0.4-0.1c0.2-0.1,0.3-0.2,0.4-0.4h0
			c0.1-0.4-0.2-0.9-0.6-0.8l-3.1,0C76.6,33.1,76.3,33.5,76.4,33.9z"/>
	</g>
	<g>
		<g>
			<path class="st1" d="M74.7,24.5c0,0,0.3,0.2,0.8,0.5c0.1,0.1,0.2,0.2,0.3,0.3c0.1,0.1,0.1,0.1,0.2,0.2c0.1,0.1,0.1,0.1,0.2,0.2
				c0.1,0.1,0.1,0.1,0.2,0.2c0.1,0.1,0.1,0.1,0.2,0.2c0.1,0.2,0.2,0.3,0.2,0.5l0,0.1c0,0.1,0,0.1,0,0.1c0,0.1,0,0.2,0,0.3
				c0,0.2,0,0.4,0,0.5c0,0.1,0,0.2,0,0.3c0,0.1,0,0.2,0,0.2c0,0.2-0.1,0.3-0.1,0.4c-0.1,0.3-0.2,0.5-0.2,0.6
				c-0.1,0.1-0.1,0.2-0.1,0.2s0-0.1,0.1-0.2c0-0.2,0.1-0.4,0.1-0.6c0-0.1,0-0.3,0-0.4c0-0.1,0-0.3,0-0.5c0-0.2,0-0.3,0-0.5
				c0-0.1,0-0.2,0-0.2l0-0.1l0-0.1c0-0.2-0.1-0.3-0.2-0.5c0-0.1-0.1-0.1-0.1-0.2c0-0.1-0.1-0.1-0.1-0.2c-0.1-0.1-0.1-0.1-0.2-0.2
				c-0.1-0.1-0.1-0.1-0.2-0.2c-0.1-0.1-0.2-0.2-0.3-0.3C74.9,24.8,74.7,24.5,74.7,24.5z"/>
		</g>
	</g>
	<g>
		<g>
			<path class="st1" d="M82.8,24.5c0,0-0.3,0.2-0.7,0.6c-0.1,0.1-0.2,0.2-0.3,0.3c0,0.1-0.1,0.1-0.2,0.2c0,0.1-0.1,0.1-0.2,0.2
				c0,0.1-0.1,0.1-0.1,0.2c0,0.1-0.1,0.1-0.1,0.2c-0.1,0.1-0.2,0.3-0.2,0.5l0,0.1l0,0.1c0,0.1,0,0.2,0,0.2c0,0.2,0,0.3,0,0.5
				c0,0.2,0,0.3,0,0.5c0,0.1,0,0.3,0,0.4c0,0.3,0.1,0.5,0.1,0.6c0,0.2,0.1,0.2,0.1,0.2s0-0.1-0.1-0.2c-0.1-0.1-0.1-0.4-0.2-0.6
				c0-0.1-0.1-0.3-0.1-0.4c0-0.1,0-0.2,0-0.2c0-0.1,0-0.2,0-0.3c0-0.2,0-0.3,0-0.5c0-0.1,0-0.2,0-0.3c0,0,0-0.1,0-0.1l0-0.1
				c0.1-0.2,0.2-0.3,0.2-0.5c0-0.1,0.1-0.1,0.2-0.2c0.1-0.1,0.1-0.1,0.2-0.2c0.1-0.1,0.1-0.1,0.2-0.2c0.1-0.1,0.1-0.1,0.2-0.2
				c0.1-0.1,0.2-0.2,0.3-0.3C82.4,24.7,82.8,24.5,82.8,24.5z"/>
		</g>
	</g>
	<g class="st9">
		<g>
			<path class="st6" d="M74.8,34.3c0.2,0,0.2-0.3,0-0.3C74.6,33.9,74.6,34.3,74.8,34.3L74.8,34.3z"/>
		</g>
	</g>
	<g class="st9">
		<g>
			<path class="st6" d="M75.7,35.6c0.2,0,0.2-0.3,0-0.3C75.5,35.2,75.5,35.6,75.7,35.6L75.7,35.6z"/>
		</g>
	</g>
	<g class="st9">
		<g>
			<path class="st6" d="M73.9,35.4c0.2,0,0.2-0.3,0-0.3C73.7,35.1,73.7,35.4,73.9,35.4L73.9,35.4z"/>
		</g>
	</g>
	<g class="st9">
		<g>
			<path class="st6" d="M81.4,34.6c0.2,0,0.2-0.3,0-0.3C81.2,34.3,81.2,34.6,81.4,34.6L81.4,34.6z"/>
		</g>
	</g>
	<g class="st9">
		<g>
			<path class="st6" d="M80.6,35.9c0.2,0,0.2-0.3,0-0.3C80.3,35.6,80.3,35.9,80.6,35.9L80.6,35.9z"/>
		</g>
	</g>
	<g class="st9">
		<g>
			<path class="st6" d="M82,35.8c0.2,0,0.2-0.3,0-0.3C81.8,35.4,81.8,35.8,82,35.8L82,35.8z"/>
		</g>
	</g>
	<g>
		<path class="st6" d="M106.8,41.2c-9.8-5.5-20.7-7.1-22.5-6.2l-0.1-0.1c1.8-0.9,12.8,0.6,22.6,6.2L106.8,41.2z"/>
	</g>
	<g>
		<path class="st6" d="M103.3,43c-8.3-5.7-16.1-6.8-20-7l0-0.1c3.9,0.1,11.7,1.2,20,7L103.3,43z"/>
	</g>
	<g>
		<path class="st6" d="M103.6,36.1c-5.8-1.9-11.1-3-15.1-3.3c-3-0.2-5.4,0.1-6.2,0.9l-0.1-0.1c1.4-1.1,7.6-2.1,21.5,2.4L103.6,36.1z
			"/>
	</g>
	<g>
		<path class="st6" d="M50.7,41l-0.1-0.1c9.9-5.4,20.9-6.8,22.7-5.9l-0.1,0.1C71.5,34.2,60.5,35.6,50.7,41z"/>
	</g>
	<g>
		<path class="st6" d="M54.2,42.8l-0.1-0.1c8.4-5.7,16.2-6.6,20.1-6.7l0,0.1C70.4,36.2,62.6,37.1,54.2,42.8z"/>
	</g>
	<g>
		<path class="st6" d="M54,35.9l0-0.1c13.9-4.3,20.2-3.3,21.5-2.1l-0.1,0.1C73.8,32.4,66.9,31.9,54,35.9z"/>
	</g>
</g>
<g>
	<g>
		<path class="st10" d="M172.9,16.8l-0.3-0.3l-0.9-0.7l-1.1-0.7l-0.8-0.8l-3.9-7l-2.2-3c-0.1-0.1-0.2-0.2-0.3-0.3v0
			c-0.4-0.2-1-0.1-1.3,0.2l-2,2.3c-0.1,0.1-0.1,0.2-0.2,0.3l-1.5,4.2l-1,5.2l-0.9,1.8l-0.3,0.9l-0.2,1.4l-0.8,1.7l-0.7,2l-1,9.4
			l-0.3,4.4c-0.1,1.6,0.3,3.3,1.3,4.6l0.2,0.3l1.3,1.6l-0.9,0.4c-1.3,0.6-2.4,1.6-3,2.9v0c-0.3,0.7-0.5,1.4-0.6,2.2l-0.6,10
			c0,0.5,0,1.1,0,1.6v0c0,1.1,0.2,2.2,0.4,3.3l0.4,1.8l0.6,2.6c0.1,0.7,0.2,1.3,0.3,2l0.9,9.4l0.2,2.5l0.3,2.1l1,3.7l0.8,2.1
			l0.8,1.5l1.1,3.2l0.5,2.4l0.9,3.1l1,3.4c0,0,1.4,3.6,1.4,3.8l0.2,2.9c0,0.3,0,0.5-0.2,0.8l-0.1,0.2c-0.2,0.2-0.4,0.4-0.7,0.5
			l-3.3,2.3c0,0.1-0.5,1.9-0.5,2l0.1,1c0,0.1,0,0.2,0,0.3l0.2,0.5c0.1,0.3,0.3,0.5,0.5,0.7l0,0c0.1,0.1,0.3,0.1,0.4,0.1l1.2,0.1
			l2.4,0.4c0.1,0,0.1,0,0.2,0l4.8,0.1l2.3-0.2c0.5-0.2,1-0.2,1.5-0.1l0,0c0.1,0,0.2,0.1,0.3,0.1l0.4,0.2l0.2,0.3
			c0.3,0.3,6.5,1.3,6.5,1.3l6.1-0.6c0.1-0.1,0.3-0.2,0.4-0.3l0,0c0.5-0.4,0.8-1.1,0.8-1.7v-0.3v-1.3l0.1-0.5l0.8,0.1l1.1,0.2
			c0,0,8.2,0.1,8.6-0.3l1-0.9c0.1-0.1,0.2-0.2,0.2-0.3l0.2-0.9c0-0.1,0-0.1,0.1-0.2l0,0c0.2-0.2,8.6-5,8.6-5l1.2-0.8l1.2-2.4l1-6.1
			l0.3-1.9c0,0,0-6.9,0.1-10.7c0-1.7-0.2-3.3-0.7-4.9l-1.5-5.1c0-0.1-0.8-2.5-0.8-2.5c-0.3-0.8-4.4-7.4-4.4-7.4
			c-0.3-0.7-4.3-6.4-4.3-6.4l-1.7-2.4L193,56l-1.2-1.6c-0.5-0.6-0.7-1.3-0.7-2v-1.3l-0.5-5.8l-0.6-2.3l0.7-0.8l1-1.2l1.4-6.6
			l0.2-3.8v-1.4l1.3-4.4l1-3.9l0.4-2.4l0.1-3.4l-0.8-2l-1.8-0.8l-2.5,0.8l-2.5,1.5l-3.5,2.7l-2.5,1.6h-1.6l-1.8-0.4l-1.5-0.2
			l-2.5-0.8L172.9,16.8z"/>
	</g>
	<g>
		<path class="st11" d="M165,40.7l0.4,0.9l0.3,0.7l0.6,0.6l0.9,0.4l0.9,0.3l1,0l0.9-0.2l0.7-0.3l0.7-0.3l-0.1-0.4
			c0,0-0.7-0.6-0.8-0.6c-0.1-0.1-0.7-0.5-0.9-0.6c-0.2-0.1-1.1-0.9-1.1-0.9l-1.3-0.2l-1.4,0.4L165,40.7z"/>
	</g>
	<g>
		<polygon class="st11" points="164.9,34.3 163.6,34.6 162.7,35.3 162,36.3 161.7,37.4 161.6,38.4 161.7,39.3 162,39.9 162.4,40.3 
			162.7,40.6 163.1,40.8 164.5,40.9 165.9,40.8 166.8,41.2 168.1,40.8 168.7,40.3 169,41.5 169.8,42.2 171.6,42.9 172.3,43.5 
			173.2,43.9 174.4,44 175.6,43.3 176.5,42.1 176.9,41.2 177.2,40.2 176.9,39.2 176.4,38.3 175.9,37.7 169.3,37.7 		"/>
	</g>
	<g>
		<path class="st12" d="M185.5,117.5C185.5,117.5,185.5,117.5,185.5,117.5c-0.1,0-0.2-0.1-0.2-0.2l0.3-5.7c0,0,0,0,0,0l5.3-21.1
			l2.5-19.5l-2.8-3.8c-0.1-0.1,0-0.2,0-0.2c0.1-0.1,0.2,0,0.2,0l2.9,3.8c0,0,0,0.1,0,0.1l-2.5,19.6c0,0,0,0,0,0l-5.3,21l-0.3,5.7
			C185.6,117.4,185.6,117.5,185.5,117.5z"/>
	</g>
	<g>
		<path class="st13" d="M163.8,40.9c-0.2,0-0.4,0-0.6-0.1c-0.2-0.1-0.4-0.1-0.5-0.2c0,0-0.1,0-0.1-0.1l-0.1-0.1
			c-0.1-0.1-0.2-0.1-0.2-0.2c-0.1-0.1-0.1-0.1-0.2-0.2c0,0-0.1-0.1-0.1-0.1l-0.1-0.1c-0.1-0.1-0.1-0.2-0.1-0.3
			c0-0.1-0.1-0.2-0.1-0.3c0-0.2-0.1-0.4-0.1-0.6c0-0.1,0-0.2,0-0.3l0-0.3l0-0.1l0,0l0,0l0-0.1l0-0.3c0-0.2,0.1-0.4,0.1-0.6
			c0-0.2,0.1-0.4,0.2-0.6c0-0.1,0.1-0.2,0.1-0.3c0.1-0.1,0.1-0.2,0.2-0.3l0.2-0.2c0.1-0.1,0.1-0.2,0.2-0.2l0.1-0.1
			c0,0,0.1-0.1,0.1-0.1c0.1-0.1,0.1-0.1,0.2-0.2c0.1-0.1,0.2-0.1,0.3-0.2c0.1,0,0.2-0.1,0.3-0.1c0.1,0,0.2-0.1,0.3-0.1
			c0.1,0,0.2-0.1,0.3-0.1c0.2-0.1,0.4-0.1,0.6-0.1l0,0c0.2,0,0.4-0.1,0.5-0.2c0.2-0.1,0.3-0.1,0.5-0.2c0.2-0.1,0.3-0.2,0.5-0.3
			c0.1,0,0.2-0.1,0.2-0.2c0.1-0.1,0.1-0.1,0.2-0.2l0.1-0.1l0.1-0.1c0.1-0.1,0.1-0.1,0.2-0.2c0.1-0.1,0.1-0.1,0.2-0.2
			c0.1-0.1,0.1-0.1,0.1-0.2c0-0.1,0.1-0.2,0.1-0.2l0.1-0.3c0-0.1,0.1-0.2,0.1-0.3c0-0.1,0.1-0.2,0.1-0.3c0-0.2,0.1-0.4,0.1-0.5
			c0-0.2,0.1-0.4,0.1-0.6c0-0.2,0-0.4,0.1-0.6c0-0.2,0-0.4,0-0.6c0-0.4,0-0.8,0-1.1c0-0.4,0-0.8-0.1-1.1c0,0.2,0.1,0.4,0.1,0.6
			c0,0.2,0,0.4,0.1,0.6c0,0.4,0,0.8,0.1,1.1c0,0.2,0,0.4,0,0.6c0,0.2,0,0.4,0,0.6c0,0.1,0,0.2,0,0.3l0,0.3c0,0.2-0.1,0.4-0.1,0.6
			c-0.1,0.2-0.1,0.4-0.2,0.6l-0.1,0.3c0,0.1-0.1,0.2-0.1,0.3c0,0.1-0.1,0.2-0.2,0.3c-0.1,0.1-0.1,0.2-0.2,0.2
			c-0.1,0.1-0.1,0.1-0.2,0.2l-0.1,0.1l-0.1,0.1c-0.1,0.1-0.2,0.1-0.2,0.2c-0.1,0.1-0.2,0.1-0.2,0.2c-0.2,0.1-0.3,0.2-0.5,0.3
			c-0.2,0.1-0.4,0.2-0.5,0.2c-0.2,0.1-0.4,0.1-0.6,0.2c0,0,0,0,0,0l0,0c-0.2,0-0.4,0-0.5,0.1c-0.1,0-0.2,0.1-0.3,0.1
			c-0.1,0-0.2,0.1-0.3,0.1c-0.1,0-0.2,0.1-0.2,0.1c-0.1,0-0.2,0.1-0.2,0.2c-0.1,0-0.1,0.1-0.2,0.2c0,0-0.1,0.1-0.1,0.1l-0.1,0.1
			c-0.1,0.1-0.1,0.1-0.2,0.2l-0.2,0.2c-0.1,0.1-0.1,0.2-0.1,0.2c0,0.1-0.1,0.2-0.1,0.2c-0.1,0.2-0.2,0.3-0.2,0.5
			c-0.1,0.2-0.1,0.4-0.1,0.5l-0.1,0.3l0,0.1l0,0l0,0l0,0.1l0,0.3c0,0.1,0,0.2,0,0.3c0,0.2,0,0.4,0.1,0.6c0,0.1,0.1,0.2,0.1,0.3
			c0,0,0,0.1,0,0.1l0.1,0.1l0.1,0.1c0,0,0.1,0.1,0.1,0.1c0.1,0.1,0.1,0.2,0.2,0.2c0.1,0.1,0.1,0.1,0.2,0.2l0.1,0.1
			c0,0,0.1,0.1,0.1,0.1c0.2,0.1,0.3,0.2,0.5,0.3C163.4,40.9,163.6,40.9,163.8,40.9z"/>
	</g>
	<g>
		<path class="st13" d="M172.2,43.4c0.2,0.2,0.5,0.3,0.8,0.4c0.3,0.1,0.6,0.2,0.9,0.1c0.1,0,0.1,0,0.2,0l0.1,0l0.1,0
			c0.1,0,0.1,0,0.2-0.1l0.2-0.1l0.1,0c0,0,0.1,0,0.1-0.1l0.2-0.1c0.1,0,0.1-0.1,0.2-0.1l0.2-0.1c0.1-0.1,0.2-0.2,0.3-0.3l0.1-0.1
			l0,0l0,0c0,0,0,0,0,0l0,0l0,0l0,0l0.1-0.2c0.1-0.1,0.2-0.2,0.3-0.4c0.1-0.1,0.2-0.2,0.2-0.4c0.1-0.1,0.1-0.3,0.2-0.4
			c0-0.1,0.1-0.3,0.1-0.4c0.1-0.3,0.1-0.6,0.1-0.9c0-0.3-0.1-0.6-0.1-0.9c-0.1-0.3-0.2-0.5-0.4-0.8c-0.1-0.1-0.2-0.2-0.3-0.4
			c-0.1-0.1-0.2-0.2-0.3-0.4c-0.2-0.3-0.3-0.5-0.5-0.8c-0.3-0.5-0.6-1.1-0.8-1.7c-0.1-0.3-0.2-0.6-0.2-0.9c0-0.3,0-0.7,0.1-1l0,0
			l0.1-0.3c0-0.1,0.1-0.2,0.1-0.3l0.1-0.3c0-0.1,0.1-0.2,0.2-0.3c0.1-0.1,0.1-0.2,0.2-0.3l0.2-0.3c0.1-0.1,0.1-0.2,0.2-0.3
			c0.1-0.1,0.1-0.2,0.2-0.3c0.1-0.1,0.1-0.2,0.2-0.3l0.2-0.3l0.2-0.2c0.1-0.1,0.2-0.2,0.3-0.2c0.1-0.1,0.2-0.1,0.3-0.2
			c0.1-0.1,0.2-0.1,0.3-0.2c0.2-0.1,0.4-0.3,0.6-0.4c-0.2,0.1-0.4,0.3-0.6,0.4c-0.1,0.1-0.2,0.1-0.3,0.2c-0.1,0.1-0.2,0.2-0.2,0.2
			c-0.1,0.1-0.2,0.2-0.2,0.2l-0.2,0.3l-0.2,0.3c-0.1,0.1-0.1,0.2-0.2,0.3c-0.1,0.1-0.1,0.2-0.2,0.3c-0.1,0.1-0.1,0.2-0.2,0.3
			l-0.2,0.3c-0.1,0.1-0.1,0.2-0.2,0.3c0,0.1-0.1,0.2-0.1,0.3l-0.1,0.3c0,0.1-0.1,0.2-0.1,0.3l-0.1,0.3l0,0l0,0
			c-0.1,0.3-0.1,0.5-0.1,0.8c0,0.3,0.1,0.6,0.2,0.8c0.2,0.6,0.5,1.1,0.8,1.6c0.2,0.3,0.3,0.5,0.5,0.8c0.1,0.1,0.2,0.2,0.3,0.4
			c0.1,0.1,0.2,0.2,0.3,0.4c0.2,0.3,0.3,0.6,0.4,0.9c0.1,0.3,0.2,0.6,0.2,0.9c0,0.3,0,0.6-0.1,0.9c0,0.2-0.1,0.3-0.2,0.4
			c-0.1,0.1-0.1,0.3-0.2,0.4c-0.2,0.3-0.3,0.5-0.5,0.8l-0.1,0.2l0,0l0,0l0,0l0,0l0,0l-0.1,0.1l-0.2,0.2c-0.1,0.1-0.1,0.1-0.2,0.2
			l-0.2,0.1c-0.1,0-0.1,0.1-0.2,0.1l-0.2,0.1c0,0-0.1,0-0.1,0.1l-0.1,0l-0.2,0.1c-0.1,0-0.2,0-0.2,0.1l-0.1,0l-0.1,0
			c-0.1,0-0.2,0-0.2,0c-0.3,0-0.6-0.1-0.9-0.2C172.7,43.8,172.4,43.6,172.2,43.4z"/>
	</g>
	<g>
		<ellipse class="st14" cx="165.3" cy="29" rx="2.5" ry="2.5"/>
		<path class="st13" d="M165.3,31.7c-1.5,0-2.6-1.2-2.6-2.7c0-1.5,1.2-2.7,2.6-2.7s2.6,1.2,2.6,2.7C168,30.5,166.8,31.7,165.3,31.7z
			 M165.3,26.7c-1.3,0-2.3,1-2.3,2.3s1,2.3,2.3,2.3c1.3,0,2.3-1,2.3-2.3S166.6,26.7,165.3,26.7z"/>
	</g>
	<g>
		<ellipse class="st14" cx="178.4" cy="32.8" rx="2.5" ry="2.5"/>
		<path class="st13" d="M178.4,35.5c-1.5,0-2.6-1.2-2.6-2.7c0-1.5,1.2-2.7,2.6-2.7c1.5,0,2.6,1.2,2.6,2.7
			C181,34.3,179.9,35.5,178.4,35.5z M178.4,30.5c-1.3,0-2.3,1-2.3,2.3s1,2.3,2.3,2.3s2.3-1,2.3-2.3S179.7,30.5,178.4,30.5z"/>
	</g>
	<g>
		<path class="st13" d="M170.9,42.7C170.9,42.7,170.9,42.7,170.9,42.7c-0.1,0-1.4-0.2-2-1c-0.3-0.3-0.4-0.7-0.4-1.1
			c-0.1,0.2-0.3,0.4-0.6,0.5c-1,0.5-2.4-0.1-2.4-0.1c-0.1,0-0.1-0.1-0.1-0.2c0-0.1,0.1-0.1,0.2-0.1c0,0,1.2,0.6,2.1,0.1
			c0.5-0.2,0.7-0.7,0.8-1c0-0.2,0.1-0.3,0.1-0.3c0-0.1,0.1-0.1,0.2-0.1c0.1,0,0.1,0.1,0.1,0.2c0,0,0,0.1-0.1,0.3
			c-0.1,0.4-0.1,1,0.3,1.6c0.6,0.7,1.8,0.9,1.8,0.9c0.1,0,0.1,0.1,0.1,0.2C171.1,42.6,171,42.7,170.9,42.7z"/>
	</g>
	<g>
		<path class="st7" d="M167.1,37.3c0.1,0.4,0.9,0.8,0.9,0.8s0,1.3,0.8,1.5c1,0.2,1.5-0.9,1.5-0.9s1.1,0.2,1.4,0c0.3-0.2,0-0.9,0-0.9
			s-0.9-0.4-1.9-0.7c-1-0.3-2.1-0.4-2.1-0.4S167,36.9,167.1,37.3z"/>
	</g>
	<g>
		
			<ellipse transform="matrix(0.2345 -0.9721 0.9721 0.2345 105.0671 198.1846)" class="st7" cx="178.4" cy="32.4" rx="1.2" ry="0.7"/>
	</g>
	<g>
		<ellipse transform="matrix(0.2345 -0.9721 0.9721 0.2345 98.752 182.9762)" class="st7" cx="165.6" cy="28.8" rx="1.2" ry="0.7"/>
	</g>
	<g>
		<polygon class="st11" points="184.9,21 189.1,16.5 191.6,14.2 193.5,13.6 194.5,13.9 195.3,15.4 195.5,17.1 192.4,28.8 
			191.7,30.4 		"/>
	</g>
	<g>
		<path class="st12" d="M170.9,120.4c-0.1,0-0.1-0.1-0.2-0.1l-0.3-1.5c0,0,0,0,0,0l-0.1-2.2c0,0,0-0.1,0-0.1l1.3-1.9c0,0,0,0,0,0
			l0.9-0.8l4.8-22l1.5-9.8l0.4-3.9l0.3-2.7L178,68l-2-8.6c0-0.1,0-0.2,0.1-0.2c0.1,0,0.2,0,0.2,0.1l2,8.6l1.7,7.4c0,0,0,0,0,0.1
			l-0.3,2.7l-0.4,3.9l-1.5,9.8l-4.8,22.1c0,0,0,0.1,0,0.1l-0.9,0.8l-1.2,1.8l0.1,2.1l0.3,1.5C171.1,120.3,171,120.3,170.9,120.4
			C170.9,120.4,170.9,120.4,170.9,120.4z"/>
	</g>
	<g>
		<g>
			<path class="st1" d="M164.6,36.7c0.3,0,0.3-0.4,0-0.4C164.3,36.3,164.3,36.7,164.6,36.7L164.6,36.7z"/>
		</g>
	</g>
	<g>
		<g>
			<path class="st1" d="M164.8,38c0.3,0,0.3-0.4,0-0.4C164.5,37.6,164.5,38,164.8,38L164.8,38z"/>
		</g>
	</g>
	<g>
		<g>
			<path class="st1" d="M163.5,39.2c0.3,0,0.3-0.4,0-0.4C163.2,38.8,163.2,39.2,163.5,39.2L163.5,39.2z"/>
		</g>
	</g>
	<g>
		<g>
			<path class="st1" d="M165.8,39.7c0.3,0,0.3-0.4,0-0.4C165.6,39.3,165.6,39.7,165.8,39.7L165.8,39.7z"/>
		</g>
	</g>
	<g>
		<g>
			<path class="st1" d="M163.6,37.3c0.3,0,0.3-0.4,0-0.4C163.3,36.9,163.3,37.3,163.6,37.3L163.6,37.3z"/>
		</g>
	</g>
	<g>
		<g>
			<path class="st1" d="M166.3,38.3c0.3,0,0.3-0.4,0-0.4C166,37.9,166,38.3,166.3,38.3L166.3,38.3z"/>
		</g>
	</g>
	<g>
		<g>
			<path class="st1" d="M170.8,40.8c0.3,0,0.3-0.4,0-0.4C170.6,40.3,170.6,40.8,170.8,40.8L170.8,40.8z"/>
		</g>
	</g>
	<g>
		<g>
			<path class="st1" d="M172.2,41.7c0.3,0,0.3-0.4,0-0.4C171.9,41.3,171.9,41.7,172.2,41.7L172.2,41.7z"/>
		</g>
	</g>
	<g>
		<g>
			<path class="st1" d="M172.8,39.3c0.3,0,0.3-0.4,0-0.4C172.6,38.9,172.6,39.3,172.8,39.3L172.8,39.3z"/>
		</g>
	</g>
	<g>
		<g>
			<path class="st1" d="M173.5,40.8c0.3,0,0.3-0.4,0-0.4C173.2,40.4,173.2,40.8,173.5,40.8L173.5,40.8z"/>
		</g>
	</g>
	<g>
		<g>
			<path class="st1" d="M174.2,42.2c0.3,0,0.3-0.4,0-0.4C174,41.8,174,42.2,174.2,42.2L174.2,42.2z"/>
		</g>
	</g>
	<g>
		<g>
			<path class="st1" d="M175.1,40.8c0.3,0,0.3-0.4,0-0.4C174.8,40.4,174.8,40.8,175.1,40.8L175.1,40.8z"/>
		</g>
	</g>
	<g>
		<path class="st6" d="M203.5,46c-5.5-2.5-12-4.4-18.1-5.3c-5.3-0.8-9.1-0.6-10.1,0l-0.1-0.1c2.1-1.3,15.7-0.5,28.4,5.3L203.5,46z"
			/>
	</g>
	<g>
		<path class="st6" d="M199.3,48.5c-10.8-6.2-20.4-6.8-25.2-6.5l0-0.2c4.8-0.2,14.5,0.3,25.3,6.6L199.3,48.5z"/>
	</g>
	<g>
		<path class="st6" d="M199,40.1c-7.3-1.7-13.9-2.6-18.9-2.5c-3.8,0.1-6.6,0.7-7.6,1.7l-0.1-0.1c1.5-1.5,9.1-3.4,26.6,0.8L199,40.1z
			"/>
	</g>
	<g>
		<path class="st6" d="M135.3,43.2l-0.1-0.1c12.6-5.8,26.3-6.6,28.4-5.3l-0.1,0.1c-1-0.6-4.7-0.8-10.1,0
			C147.2,38.8,140.8,40.7,135.3,43.2z"/>
	</g>
	<g>
		<path class="st6" d="M139.5,45.7l-0.1-0.1c10.8-6.2,20.5-6.8,25.3-6.6l0,0.2C159.9,38.9,150.3,39.5,139.5,45.7z"/>
	</g>
	<g>
		<path class="st6" d="M139.8,37.2l0-0.2c17.5-4.1,25-2.3,26.6-0.8l-0.1,0.1C164.4,34.7,155.9,33.4,139.8,37.2z"/>
	</g>
	<g>
		<ellipse class="st8" cx="164.1" cy="28.7" rx="0.5" ry="0.5"/>
	</g>
	<g>
		<ellipse class="st8" cx="165.8" cy="29.8" rx="0.3" ry="0.4"/>
	</g>
	<g>
		<ellipse class="st8" cx="177" cy="32.4" rx="0.5" ry="0.5"/>
	</g>
	<g>
		<ellipse class="st8" cx="178.7" cy="33.6" rx="0.3" ry="0.4"/>
	</g>
	<g>
		<g>
			<path class="st10" d="M203.9,109.3c1.7,0.1,3.5,0.3,5.2,0.6c0.4,0.1,0.8,0.1,1.2,0.2c0.3,0,0.9,0.1-0.4-0.1c0.2,0,0.3,0,0.5,0.1
				c0.9,0.1,1.7,0.2,2.6,0.4c3.2,0.5,6.5,0.9,9.7,1.2c6.5,0.5,13.1-0.3,19.3-2.5c3-1.1,6-2.5,8.9-3.9c2.7-1.3,5.3-2.9,7.6-4.8
				c2.5-2.1,4.4-4.7,5.5-7.8c0.7-1.9,0.9-4,0.9-6c0-2.6-0.5-5.6-2-7.8c-1.1-1.6-2.5-2.8-4.3-3.5c-1.7-0.6-3.5-0.5-5.2-0.2
				c-2.3,0.4-3.8,3.3-3.1,5.5c0.8,2.5,3,3.6,5.5,3.1c0.6-0.1-1.3,0.1-0.3,0c0.2,0,0.4,0,0.6,0c0.6,0-1.4-0.3-0.4,0
				c0.1,0,0.2,0.1,0.3,0.1c0.6,0.2-0.6-0.2-0.6-0.3c0,0,0.4,0.2,0.5,0.3c0.4,0.2-0.9-0.9-0.4-0.3c0.2,0.2,0.7,0.8,0.1,0
				c-0.6-0.7-0.1-0.1,0,0.1c0.1,0.2,0.2,0.3,0.3,0.5c0.2,0.5-0.3-0.7-0.3-0.7c0,0,0.1,0.2,0.1,0.3c0.1,0.4,0.3,0.9,0.4,1.3
				c0,0.2,0.1,0.4,0.1,0.6c-0.3-1.6-0.1-0.8-0.1-0.4c0,0.5,0.1,0.9,0.1,1.4c0,0.4,0,0.8,0,1.2c0,0.2,0,0.4-0.1,0.6
				c0,0.1,0,0.2,0,0.3c-0.1,0.7,0.2-1.3,0.1-0.6c-0.1,0.7-0.2,1.4-0.5,2c-0.1,0.4-0.6,1.1,0.1-0.1c-0.1,0.2-0.2,0.5-0.4,0.8
				c-0.1,0.2-0.3,0.5-0.4,0.7c-0.2,0.4-1,1.2,0,0.1c-0.8,0.9-1.6,1.8-2.6,2.6c-0.1,0.1-0.3,0.2-0.3,0.3c0,0,0.9-0.7,0.4-0.3
				c-0.2,0.2-0.5,0.3-0.7,0.5c-0.6,0.4-1.1,0.7-1.7,1.1c-1.1,0.6-2.2,1.2-3.3,1.8c-1.1,0.5-2.2,1-3.3,1.5c-0.5,0.2-1,0.5-1.6,0.7
				c-0.2,0.1-0.4,0.2-0.6,0.3c0.1-0.1,0.9-0.4,0.2-0.1c-0.5,0.2-0.9,0.4-1.4,0.5c-1.5,0.5-3,1-4.5,1.4c-0.7,0.2-1.5,0.3-2.2,0.5
				c-0.3,0.1-0.7,0.1-1,0.2c-0.2,0-0.3,0.1-0.5,0.1c-0.8,0.1,0.9-0.1,0.3,0c-2.7,0.3-5.5,0.4-8.2,0.2c-1.5-0.1-3-0.2-4.6-0.4
				c-0.4,0-0.7-0.1-1.1-0.1c-0.2,0-0.3,0-0.5-0.1c-0.9-0.1,1.1,0.2,0.2,0c-0.8-0.1-1.6-0.2-2.4-0.3c-3.8-0.5-7.5-1.1-11.3-1.4
				c-2.3-0.2-4.5,2.2-4.4,4.4C199.6,107.5,201.4,109.1,203.9,109.3L203.9,109.3z"/>
		</g>
	</g>
	<g>
		<polygon class="st11" points="167.8,16.8 166,10.9 164.8,7.8 163.4,6.4 162.3,6.2 161,7.1 160.1,8.6 158.3,17.5 157.8,20.8 		"/>
	</g>
	<g>
		<path class="st12" d="M174.7,105l-8.9-16.5c-1.6-3-2.7-6.2-3.4-9.5l-2.6-12.9c-0.1-0.7-0.2-1.3-0.1-2l0.4-5.8
			c0.2-2.9,2.2-5.5,5-6.4h0c1.4-0.5,2.9-0.5,4.4-0.1l0.7,0.2c1.7,0.5,3.1,1.6,4.1,3.1l0.6,0.9c1.1,1.7,1.8,3.5,2.2,5.5l2.8,13.9
			l-2.4,16.1L174.7,105z"/>
	</g>
</g>
<path class="st15" d="M196,248v-46.7c0-4.3,2.8-7.8,6.2-7.8H525"/>
<path class="st15" d="M46,229.8v-39.3c0-3.6,4-6.5,9-6.5h470"/>
<g>
	<g>
		<path class="st4" d="M75.1,315.7c5,5.2,9.7,7.4,16.6,9.6c9.4,2.9,49.5,5.8,54.3,2.9c-4.4,4.6-10.1,8.2-16.3,9.7
			c-5,1.2-9.8,1.6-14.9,2.1c-18.5,1.5-43.4-11.5-45.5-17.1c1.6-1.1,3.2-2.4,4.5-3.8c0.9-0.9,1.7-2.2,1-3.2"/>
	</g>
	<g>
		<path class="st3" d="M65.2,233.1l0.4,11c0,0,0.2,1.5,1.1,2.9c0.9,1.5,2.4,2.7,2.4,2.7l2.3-1l0.1-1.1c0,0,0.4-1.1,1.4-2.2
			c0.7-0.8,2-1.5,2-1.5s1.9-1.5,2.9-3.5c0.8-1.4,1.1-3.1,1.3-4c0.1-0.4,0-0.8-0.2-1.2c-0.6-1.1-2-3.8-3.7-6.4
			c-2.4-3.7-5.3-7.3-5.3-7.3s-2.5-1.6-5.3-2.9c-0.7-0.3-1.5-0.6-2.2-0.9l2,8.5L65.2,233.1z"/>
	</g>
	<g>
		<path class="st4" d="M92.2,306.3c-2-5-7.8-9-7.8-9s-1.2-5.7-2.8-11.4c-1.6-5.6-2.9-13.5-2.9-13.5l-1-2.7l-4.3-12.5
			c0,0-1.4-2.5-1.7-2.8c-0.3-0.3-0.6-2.7-0.6-2.7l0.2-3l-2.3,1c0,0-1.5-1.3-2.4-2.7c-0.8-1.3-1.1-2.9-1.1-2.9l-0.4-11l-0.8-6.9
			l-2-8.5c-2.3-0.9-4.3-1.5-4.3-1.5s-5-1.3-9.7-1.2c-4.6,0.1-9,1.7-9,1.7s-3.2,1.8-5.6,3.7c0,0-0.1,0-0.1,0.1l-2.1,14.9
			c-0.2,1.1-0.3,2.3-0.1,3.4l-0.2,7.1c0,0,0.8,8.2,1.1,8.2s-4.6,9.9-4.6,9.9l-1.7,6.2l-1.2,3.6c0,0-1.1,4.7-1.3,9.1
			c-0.2,4.4,0.4,8.6,0.4,8.6s0.6,2.1,1.4,3.9c0.7,1.6,1.8,2.8,1.8,2.8s-0.1,2.8,0.2,5.4c0.3,2.6,1.1,5.1,1.1,5.1s-1.2,8.8,0.8,15.1
			c1.9,5.8,6.9,9,6.9,9s-0.7,1.5-1.5,2.6c-0.7,1-1.3,1.6-1.3,1.6s-1.2,0.2-2,1.6c-0.7,1.3-0.8,3.7-0.8,3.7s-0.2,0.7,0,1.3
			c0.2,0.5,0.8,1,0.8,1s2,0.6,4.4,0.6c2.8,0.1,6.2-0.4,6.2-0.4s1.1,0.1,2.5-0.4c1.3-0.5,3-1.5,3-1.5l4.6-0.1c0,0-0.3,0.9-0.1,1.7
			c0.1,0.6,0.6,1.2,0.6,1.2s2.3,1.1,5.6,1.3c4.3,0.2,9.9-0.5,9.9-0.5s1.2,0.2,1.9-0.6c0.9-0.9,1.3-2.9,1.3-2.9s3.1,0.7,5.7,0.6
			c3.2-0.1,6.1-1,6.1-1s0.9-0.5,1.1-2.1c0.2-1.5-0.1-4-0.1-4s2.9-3.2,4.7-7c2.4-5.1,3.9-11.1,3.9-11.1S94.4,311.9,92.2,306.3z"/>
	</g>
	<g>
		<path class="st3" d="M30,247.6c1.3-1.5,2.4-3.9,2.4-3.9l-0.8-5c-0.2-1.1-0.1-2.3,0.1-3.4l2.1-14.9c-2,1.7-3.2,3.6-3.2,3.6
			s-1.9,1.6-3.2,3.2c-1.2,1.4-1.9,2.9-1.9,2.9s-1.1,2-1.4,4c-0.4,2.9,0,6.2,0,6.2s0.1,0.9,0.5,1.7c0.4,0.8,1.3,1.3,1.3,1.3
			s1.2,1.2,1.5,2.6c0.4,1.6,0,3.3-0.1,3.6C28.4,248.9,29.5,248.2,30,247.6z"/>
	</g>
	<g>
		<path class="st3" d="M49.5,328c0.4,1.3,2.9,3.9,3.5,4.4c4.1-1.1,2.9-5.6,3.5-9.5c0.6-3.8,2.6-7,2.9-10.8c0.3-3.4,0.2-6.3,0.9-9.6
			c2.1-10.1,12.7-21.6,5.5-31.2c-7-9.3-18.5-8.1-28.1-3.9c-14.3,6.3-5.7,17.4,0.5,27.6c3.7,6,1.3,11.5,3.6,17.6
			c1.1,2.8,3.5,4.5,4.8,7.1C48.1,322.5,48.2,325.4,49.5,328z"/>
	</g>
	<g>
		<polygon class="st3" points="71.5,343 71,343 71.1,334.7 71.4,330.7 71.4,330.7 73.5,324.4 74.6,319.1 77,314.6 78,310.4 
			78.5,304.1 78.4,299.1 78.3,296 78.7,296 78.8,299.1 79,304.2 78.4,310.5 77.4,314.7 75,319.2 73.9,324.5 71.8,330.8 71.5,334.7 
					"/>
	</g>
	<g>
		<polygon class="st3" points="36,332.8 31.7,314.2 30.8,312.1 29.3,309.6 28.3,308.8 28.6,308.5 29.6,309.3 31.2,311.9 32.1,314 
			36.4,332.7 		"/>
	</g>
	<g>
		<path class="st3" d="M73.7,328.3l-0.2-0.4c0.1,0,6.6-4.3,9.2-11.5c2.8-7.9,1.6-19,1.6-19.1l0.4,0c0,0.1,1.2,11.3-1.6,19.3
			C80.4,323.9,73.8,328.2,73.7,328.3z"/>
	</g>
	<g>
		<polygon class="st3" points="52.4,342.9 52,342.8 52.6,340.9 53.9,339.7 55.3,338.4 56.1,335.6 56.6,331.4 57,331.5 56.5,335.7 
			55.7,338.6 54.2,340 53,341.1 		"/>
	</g>
	<g>
		<polygon class="st3" points="47.7,343.1 47.4,342.8 48.3,341.6 48.4,339.7 48.7,337.6 48.8,334.8 49,330.6 49,327.3 49.4,327.3 
			49.4,330.6 49.3,334.8 49.1,337.7 48.8,339.8 48.7,341.8 		"/>
	</g>
	<g>
		<path class="st7" d="M38.1,236.4l0.6-0.9c0.6-0.8,1.5-1.4,2.5-1.4l2.6,0c1,0,2,0.5,2.6,1.4l0.9,1.3l0,0.3c-0.1,1-0.4,2-1,2.8
			l-0.2,0.3c-0.4,0.5-6.4,0.9-6.9-0.1l-0.2-0.3c-0.4-0.5-0.7-1.1-0.9-1.8l-0.2-0.8l0,0C37.8,237,37.9,236.7,38.1,236.4z"/>
	</g>
	<g>
		
			<ellipse transform="matrix(0.4224 -0.9064 0.9064 0.4224 -192.5034 173.9415)" class="st7" cx="40.2" cy="238" rx="0.9" ry="0.9"/>
	</g>
	<g>
		<ellipse transform="matrix(0.4224 -0.9064 0.9064 0.4224 -190.2402 177.474)" class="st7" cx="44.1" cy="238" rx="0.9" ry="1"/>
	</g>
	<g>
		
			<rect x="41.8" y="240.6" transform="matrix(0.9998 -1.922721e-02 1.922721e-02 0.9998 -4.6531 0.8524)" class="st7" width="0.4" height="3.6"/>
	</g>
	<g>
		<path class="st7" d="M43.9,252.7c-6.4,0.1-8.3-4.7-8.3-4.7s0.9,0.5,2-0.1c1.9-1.1,4.6-3.5,4.6-3.5s5,2.9,8.5,3.5
			c3.2,0.5,4.8-1.2,4.8-1.2S54.4,251.9,43.9,252.7z"/>
	</g>
	<g>
		<path class="st16" d="M45.5,250.7c-1.3,0.8-3.4,0.6-4.9,0.5c-2.4-0.1-3.1-3.3-3.1-3.3s1-0.5,2.1-1.4c1.2-0.9,2.5-2.1,2.5-2.1
			s1.5,0.9,3.1,1.6c1.4,0.7,2.9,1.2,2.9,1.2S47.2,249.6,45.5,250.7z"/>
	</g>
	<g>
		<path class="st7" d="M43.6,252.9c-3.2,0-5.3-1.3-6.5-2.4c-1.3-1.2-1.8-2.4-1.8-2.5l-0.2-0.5l0.5,0.3c0,0,0.8,0.4,1.8-0.1
			c1.9-1,4.6-3.4,4.6-3.5l0.1-0.1l0.1,0.1c0,0,5,2.9,8.4,3.5c3,0.5,4.6-1.1,4.6-1.1l0.5-0.5l-0.1,0.7c0,0.1-0.3,1.4-1.9,2.8
			c-2.6,2.3-6.8,3.1-9.8,3.3l0,0C43.8,252.9,43.7,252.9,43.6,252.9z M35.9,248.4c0.6,1.2,2.8,4.2,7.9,4.1c2.9-0.2,7-1,9.6-3.2
			c0.8-0.7,1.3-1.4,1.5-1.9c-0.8,0.5-2.2,1.1-4.4,0.8c-3.2-0.6-7.6-3-8.4-3.5c-0.5,0.5-2.8,2.5-4.6,3.4
			C36.9,248.5,36.3,248.5,35.9,248.4z"/>
	</g>
	<g>
		<path class="st3" d="M49.6,234.2c-0.1,0-0.1,0-0.1-0.1c-4.6-4.2-9.1-1.8-10.7-0.9c-0.5,0.3-0.6,0.3-0.8,0.3
			c-0.1,0-0.1-0.1-0.1-0.2c0-0.1,0-0.2,0.2-0.3c0,0,0.1,0,0.1,0c0.1,0,0.3-0.1,0.4-0.2c1.6-0.9,6.4-3.5,11.2,0.9
			c0.1,0.1,0.1,0.2,0,0.3C49.7,234.2,49.6,234.2,49.6,234.2z"/>
	</g>
	<g>
		<ellipse class="st14" cx="37.6" cy="229.2" rx="2" ry="2.4"/>
		<path class="st13" d="M37.6,231.7c-1.2,0-2.2-1.1-2.2-2.5c0-1.4,1-2.5,2.2-2.5c1.2,0,2.2,1.1,2.2,2.5
			C39.8,230.6,38.8,231.7,37.6,231.7z M37.6,226.9c-1,0-1.9,1-1.9,2.2c0,1.2,0.8,2.2,1.9,2.2c1,0,1.9-1,1.9-2.2
			C39.5,227.9,38.7,226.9,37.6,226.9z"/>
	</g>
	<g>
		<ellipse class="st7" cx="37.9" cy="229.4" rx="1.2" ry="1.3"/>
	</g>
	<g>
		<ellipse class="st14" cx="53" cy="229.9" rx="2.2" ry="2.6"/>
		<path class="st13" d="M53,232.7c-1.3,0-2.4-1.2-2.4-2.7s1.1-2.7,2.4-2.7s2.4,1.2,2.4,2.7S54.3,232.7,53,232.7z M53,227.5
			c-1.1,0-2.1,1.1-2.1,2.5c0,1.4,0.9,2.5,2.1,2.5s2.1-1.1,2.1-2.5C55.1,228.6,54.2,227.5,53,227.5z"/>
	</g>
	<g>
		<ellipse class="st7" cx="53.4" cy="230.2" rx="1.3" ry="1.4"/>
	</g>
	<g>
		<circle class="st8" cx="37" cy="228.8" r="0.5"/>
	</g>
	<g>
		<circle class="st8" cx="52.3" cy="229.3" r="0.6"/>
	</g>
</g>
<g>
	<g>
		<path class="st10" d="M227.3,329.4l-0.5,4.2l-0.2,4.7l1,1.1l1.1,1.2l0.4,1.5l0.2,2c0,0-0.3,0.8-0.5,1c-0.2,0.2-1,0.2-1,0.2
			l-2.2,0.5l-5,0.2l-1.4-0.2l-1.4-0.1l-2.9-1.5l-0.5-0.7l-0.8-0.9l-0.6-1l-0.1-2.2l0.1-0.9l-1.4-0.4h-0.9l-1.4,0.5l-0.8,0.5
			l-2.3,0.8l-1.7,0.2l-1.7,0.1l0.6,1.1l0.5,2.1v1.2l-1.2,1.4l-2.6,0.5l-2.3,0.2h-2.1c0,0-3-0.2-3.2-0.2c-0.2,0-1.5-0.2-1.5-0.2
			l-1.7-1l-1.4-2l-0.6-1.8l-0.2-2.8l-2-0.9l-3.1-0.4l-3.5-0.8l-3.2-1.4l-1.7-1.4l-2-2.2l-1-1.7l-0.5-2.3l-0.2-2.9l0.5-3.2l1.4-3.2
			l1.2-1.8l2.2-2.8l1.7-2.3l1.8-2.6l5.3-11.6l0.8-1.6v-1l-0.7-1c0,0-0.4-1.1-0.2-1.5s0.4-2.3,0.4-2.3l0.6-3l0.2-1.2l2.4-6.5l0.2-1.4
			l-0.7-2.1l0.3-1.7l-0.7-1.7l-0.4-2.1L184,267l-3-3.7l-1.9-2.3l-0.8-0.9l-2.3-3.7c0,0-1.6-1.3-2.9-2.8c-1.5-1.6-2.8-3.3-2.8-3.3
			s-1.3-2.2-2-4.7c-0.8-2.5-1.1-5.3-1.1-5.3s0-0.8,0.3-1.5c0.2-0.6,0.8-1.1,0.8-1.1l1.3-0.5l2.6-0.4c0,0,4.9,0.6,9.5,2.7
			c4.2,1.9,8.3,5.2,8.3,5.2s2.8-1.5,6.4-2.6c3.5-1.1,7.8-1.9,7.8-1.9s1.7-6.2,4.4-10.9c2.5-4.3,6-7.2,6-7.2s1.5-0.7,2.8-0.2
			c1,0.4,1.8,2.1,1.8,2.1s1.6,3.1,2.2,6.1c0.7,3.7,0.5,7.4,0.5,7.4l0.8,8.7l0.2,2.1v1.4l-0.2,1.4l-0.4,1l-0.1,1.4l-0.2,1.8l-0.2,1.6
			l0.2,1.7l-0.1,1.4l0.3,2l2.4,9.9l0.8,2.5l-0.3,1.6l-0.6,1.2l4.3,6.2l1.1,3.7c0,0,1.5,8.5,1.5,14.3c0,1.9-0.3,3.5-0.6,4.6
			c-0.5,1.8-0.8,3.6-0.6,5.4c0,0.7,0.1,1.3,0.1,2c-0.1,2.7-0.8,5.2-0.8,5.2L227.3,329.4z"/>
	</g>
	<g>
		<path class="st10" d="M221.8,291.4c-0.9-7.9-3.4-15-3.4-15l-0.8-1.3l-1.4-0.4L215,274l-0.3,0.3l-0.6,1.3l-1.5,1.2l-1.4,0.3
			l-0.3,0.2l-0.9,0.9l-1.1,0.8l-1.4,0.4l-1.4,0.2l-1.8-0.3l-0.7,0.3l-1.5,0.9l-0.8,0.2l-1.6-0.5l-2-0.3c0,0-1.9,1.5-2.4,1.8
			c-0.5,0.3-1.6,2.4-1.6,2.4l-0.7,4.9l0.8,2l1.1,2.6l1.2,2c0,0,1.2,2.8,1.7,5.9c0.8,5.2,1.1,11.8,1.1,11.8l0.6,1.7l0.4,1l0.5,1.8
			l0.9,2.9l0.6,2.3l0.9,2.6l2.6,6.2l1.8,1.1l2.9-1.1l2-2.9l1.5-1.9l2.6-2.8l1-1l2-3.1l0.2-2.6l2.3-6.8l0.6-1.1
			C222,309.3,222.7,300,221.8,291.4z"/>
	</g>
	<g>
		<path class="st11" d="M214.9,273.9l-0.4-2.2l-0.4-2.1c0,0,0-0.1,0-0.1l-0.5-2c0-0.1-0.1-0.2-0.1-0.3l-0.7-1.3c0,0,0-0.1-0.1-0.1
			l-0.9-1.2c-0.1-0.1-0.1-0.1-0.2-0.2l-2.5-2l-2.5-2.2c-0.1-0.1-0.2-0.2-0.3-0.3l-2.7-5.1c-0.1-0.2-0.2-0.4-0.1-0.7l1-8.2
			c0-0.3,0-0.5-0.2-0.8l-0.7-1.1c-0.1-0.2-0.2-0.3-0.4-0.4l-1.9-1l-1.2-0.6c-0.2-0.1-0.4-0.1-0.7-0.1l-0.7,0.1l0,0l0,0l-1.1,0.2
			c-0.1,0-0.1,0-0.2,0l-1.8,0.6c0,0-0.1,0-0.1,0l-1.2,0.5c-0.1,0.1-0.3,0.1-0.4,0.2l-1.1,1.1c-0.1,0.1-0.2,0.3-0.3,0.5l-1.2,4.3
			c0,0.1,0,0.3,0,0.4l0.2,1.8c0,0.3,0.2,0.6,0.5,0.8l5.3,3.6c0.2,0.1,0.4,0.4,0.4,0.6l1.4,4.5c0.1,0.2,0.1,0.4,0,0.6l-0.7,2.5
			l-1,3.5c0,0,0,0.1,0,0.1l-0.4,2.2c0,0.1,0,0.1,0,0.2l0,2l0,1.9c0,0.1,0,0.2,0,0.3l0.2,1.1c0,0.1,0.1,0.2,0.1,0.3l0.7,1.5
			c0,0.1,0.1,0.1,0.1,0.2l0.7,0.9l0.4,0.5c0,0,0.1,0.1,0.1,0.1l0.7,0.7c0.1,0.1,0.3,0.2,0.4,0.3l1.1,0.4c0.2,0.1,0.4,0.1,0.6,0
			l0.3-0.1c0.1,0,0.2-0.1,0.3-0.1l1.3-0.8c0,0,0.1,0,0.1-0.1l0.3-0.1c0.2-0.1,0.4-0.1,0.6-0.1l1.3,0.2c0.1,0,0.2,0,0.3,0l1.2-0.1
			c0.1,0,0.1,0,0.2,0l1.1-0.4c0.1,0,0.2-0.1,0.3-0.2l0.9-0.6c0.1,0,0.1-0.1,0.2-0.2l0.7-0.8c0,0,0.1-0.1,0.1-0.1l0,0
			c0.1-0.1,0.3-0.2,0.5-0.2l0.8-0.2c0.2,0,0.3-0.1,0.5-0.2l1.1-0.9c0.1-0.1,0.3-0.3,0.3-0.4l0.4-1c0-0.1,0.1-0.1,0.1-0.2l0.2-0.3
			L214.9,273.9z"/>
	</g>
	<g>
		<path class="st10" d="M173.8,325.8l-4.8-3.6c-1.8-1.4-3.4-3-4.7-4.9l-1.5-2.1c-1.5-2.1-2.8-4.4-3.9-6.7l-3.9-8.5l-0.6-2.3
			c-1.1-4-1.5-8.1-1-12.3l0.8-6.9l2.2-2.5l4.5-6.1l-0.5,4.9l3.6-2.1l1.7,6.3l1.8-2.2l0,5.3l0.5,6.3l-0.2,4.2l1.5,6.8l4.2,8.9
			l1.8,3.1l4.5,3l-2.5,9L173.8,325.8z"/>
	</g>
	<g>
		<polygon class="st11" points="170.2,238.6 172.7,238.4 180.4,240.8 181.5,241.9 183.9,245.7 186.2,250.2 184.8,258 183.7,259.2 
			181.5,258.6 179.7,257.4 177.6,255.6 173.3,251.6 171,249.2 169.2,244.9 168.3,240.7 168.3,239.3 		"/>
	</g>
	<g>
		<polygon class="st11" points="209.1,241.1 209,240.8 208.5,238 208.7,233.8 209.5,230.4 212.1,226.4 214,224 215.2,223.5 
			217.2,224 217.9,224.9 219.1,227.5 220,230.5 220.7,234.6 220.9,239.1 220.3,243 220,246.3 219,248.9 217.1,248.6 215.4,248.2 
			213.1,247.3 212.2,246.5 211,245 210.3,243.7 209.4,242.2 		"/>
	</g>
	<g>
		<path class="st12" d="M187.4,338.9c-0.1,0-0.2-0.1-0.2-0.2l-0.3-3.4l-0.1-1.3c0,0,0,0,0,0v-1.2l-0.1-1.8l-0.1-1.2l-2-6.2
			c0,0,0,0,0-0.1l0.3-9.4l0.1-14.1c0-0.1,0.1-0.2,0.2-0.2c0,0,0,0,0,0c0.1,0,0.2,0.1,0.2,0.2l-0.1,14.1l-0.3,9.4l2,6.2c0,0,0,0,0,0
			l0.1,1.2l0.2,1.8l0,1.2l0.1,1.3l0.3,3.4C187.6,338.8,187.5,338.9,187.4,338.9C187.4,338.9,187.4,338.9,187.4,338.9z"/>
	</g>
	<g>
		<path class="st17" d="M192.6,285.2"/>
	</g>
	<g>
		<path class="st17" d="M193.1,288.8"/>
	</g>
	<g>
		<path class="st17" d="M193.9,290.8"/>
	</g>
	<g>
		<path class="st17" d="M194.9,293.4"/>
	</g>
	<g>
		<path class="st17" d="M196.1,295.4"/>
	</g>
	<g>
		<path class="st17" d="M195.4,309"/>
	</g>
	<g>
		<path class="st17" d="M197.6,311.6"/>
	</g>
	<g>
		<path class="st12" d="M203,340.2c-0.1,0-0.1-0.1-0.2-0.1l-0.7-2.8l-1-2.4c0,0,0-0.1,0-0.1l0.9-3.2l0.1-0.3
			c0.5-2.7,0.3-5.5-0.5-8.2l-2-7.2l-1-2.7c0-0.1,0-0.2,0.1-0.2c0.1,0,0.2,0,0.2,0.1l1,2.7l2,7.2c0.8,2.7,1,5.6,0.5,8.3l-0.1,0.3
			l-0.9,3.1l1,2.4c0,0,0,0,0,0l0.7,2.9C203.2,340.1,203.2,340.2,203,340.2C203.1,340.2,203.1,340.2,203,340.2z"/>
	</g>
	<g>
		<path class="st12" d="M213.2,338.6c-0.1,0-0.2-0.1-0.2-0.2V334l0.1-2.7c0,0,0,0,0,0l0.3-2.2c0,0,0,0,0,0l0.6-2.3c0,0,0,0,0,0
			l1.2-2.2c0,0,0,0,0,0l1.6-1.6l1.9-3l0.1-2.6c0,0,0,0,0,0l1.4-3.6l1-3.2c0,0,0,0,0,0l0.6-1.1c0-0.1,0.1-0.1,0.2-0.1
			c0.1,0,0.1,0.1,0.1,0.2l-0.6,1l-1,3.2l-1.3,3.6l-0.1,2.6c0,0,0,0.1,0,0.1l-2,3.1c0,0,0,0,0,0l-1.6,1.6l-1.2,2.1l-0.6,2.3l-0.3,2.2
			l-0.1,2.7l0,4.5C213.4,338.6,213.3,338.6,213.2,338.6z"/>
	</g>
	<g>
		<path class="st17" d="M229.1,304.3"/>
	</g>
	<g>
		<path class="st10" d="M203.6,279.6l-0.1-0.3c0,0,1-0.4,1.9-1c0.7-0.4,1.4-1.1,1.4-1.1l0.1-0.1l0.1,0c0,0,1.2,0.1,2.4,0.1
			c1.2-0.1,2.6-0.4,2.6-0.4l0.1,0.3c0,0-1.4,0.3-2.6,0.4c-1.1,0.1-2.1,0-2.4-0.1c-0.2,0.2-0.8,0.7-1.4,1.1
			C204.6,279.2,203.6,279.6,203.6,279.6z"/>
	</g>
	<g>
		
			<rect x="206.4" y="275.5" transform="matrix(0.9527 -0.304 0.304 0.9527 -74.2619 75.8834)" class="st10" width="0.3" height="1.9"/>
	</g>
	<g>
		<path class="st7" d="M201.3,273.1l0.2-1c0.1-0.9,0.7-1.6,1.5-2l2.1-1c0.8-0.4,1.8-0.3,2.6,0.1l1.2,0.7l0.1,0.3
			c0.3,0.8,0.4,1.7,0.3,2.6l0,0.3c-0.1,0.6-0.4,1.1-0.9,1.4l-0.3,0.2c-0.3,0.2-0.7,0.4-1,0.5l-1.1,0.4c-0.4,0.1-0.8,0.2-1.3,0.3l0,0
			c-0.4,0-0.8,0-1.1-0.2l-0.3-0.2c-0.5-0.3-1-0.6-1.4-1.1l-0.5-0.5l0,0C201.3,273.7,201.2,273.4,201.3,273.1z"/>
	</g>
	<g>
		<ellipse class="st7" cx="203.7" cy="273.9" rx="0.8" ry="0.8"/>
	</g>
	<g>
		<ellipse class="st7" cx="207.5" cy="272.7" rx="0.9" ry="0.8"/>
	</g>
	<g>
		<ellipse class="st14" cx="193.8" cy="263.3" rx="2.3" ry="2.3"/>
		<path class="st13" d="M193.8,265.7c-1.4,0-2.5-1.1-2.5-2.4c0-1.3,1.1-2.4,2.5-2.4s2.5,1.1,2.5,2.4
			C196.3,264.6,195.2,265.7,193.8,265.7z M193.8,261.2c-1.2,0-2.1,0.9-2.1,2.1s1,2.1,2.1,2.1c1.2,0,2.1-0.9,2.1-2.1
			S195,261.2,193.8,261.2z"/>
	</g>
	<g>
		<ellipse class="st14" cx="210.5" cy="257.9" rx="2.3" ry="2.2"/>
		<path class="st13" d="M210.5,260.3c-1.3,0-2.4-1.1-2.4-2.3c0-1.3,1.1-2.3,2.4-2.3s2.4,1.1,2.4,2.3
			C213,259.2,211.9,260.3,210.5,260.3z M210.5,255.9c-1.2,0-2.1,0.9-2.1,2s0.9,2,2.1,2s2.1-0.9,2.1-2S211.7,255.9,210.5,255.9z"/>
	</g>
	<g>
		<ellipse class="st7" cx="194" cy="263.2" rx="1.4" ry="1.3"/>
	</g>
	<g>
		<ellipse class="st7" cx="210.6" cy="258" rx="1.4" ry="1.3"/>
	</g>
	<g>
		<ellipse class="st8" cx="192.8" cy="262.9" rx="0.6" ry="0.6"/>
	</g>
	<g>
		<ellipse class="st8" cx="195" cy="263.9" rx="0.5" ry="0.5"/>
	</g>
	<g>
		<ellipse class="st8" cx="209.3" cy="257.7" rx="0.6" ry="0.6"/>
	</g>
	<g>
		<ellipse class="st8" cx="211.8" cy="258.5" rx="0.5" ry="0.5"/>
	</g>
	<g>
		<path class="st13" d="M191.7,264.6c-0.2,0-0.3-0.1-0.4-0.3c-0.3-0.7-0.3-1.4,0-2.1c0.3-0.7,0.8-1.2,1.5-1.5c1.4-0.6,3,0,3.6,1.4
			c0.1,0.2,0,0.5-0.2,0.5c-0.2,0.1-0.5,0-0.5-0.2c-0.4-0.9-1.5-1.4-2.5-1c-0.5,0.2-0.8,0.6-1,1c-0.2,0.5-0.2,1,0,1.4
			c0.1,0.2,0,0.5-0.2,0.5C191.8,264.6,191.7,264.6,191.7,264.6z"/>
	</g>
	<g>
		<path class="st13" d="M208.5,259.3c-0.2,0-0.3-0.1-0.4-0.2c-0.3-0.6-0.3-1.3,0-2c0.3-0.7,0.8-1.2,1.4-1.5c1.4-0.6,2.9,0,3.5,1.3
			c0.1,0.2,0,0.5-0.2,0.5c-0.2,0.1-0.5,0-0.5-0.2c-0.4-0.9-1.5-1.3-2.4-0.9c-0.5,0.2-0.8,0.6-1,1c-0.2,0.4-0.2,0.9,0,1.4
			c0.1,0.2,0,0.5-0.2,0.5C208.6,259.2,208.5,259.3,208.5,259.3z"/>
	</g>
</g>
<path class="st18" d="M453.5,208.5h-122c-4.4,0-8-3.6-8-8v-65c0-4.4,3.6-8,8-8h122c4.4,0,8,3.6,8,8v65
	C461.5,204.9,457.9,208.5,453.5,208.5z"/>
<g>
	<g>
		<path class="st7" d="M369.8,153.8c-3.7,0-6-2.8-6-6.4c0-3.6,2.4-6.3,6-6.3c3.6,0,6,2.8,6,6.3C375.7,151,373.4,153.8,369.8,153.8z
			 M369.8,143.5c-2.2,0-3.5,2-3.5,3.9c0,1.9,0.9,4.1,3.5,4.1c2.6,0,3.5-2.3,3.5-4.1C373.3,145.4,372,143.5,369.8,143.5z"/>
		<path class="st7" d="M377.8,141.5h2.9c2.2,0,3.6,0.9,3.6,3.3c0,0.9-0.3,1.9-1.1,2.3c1.4,0.3,2.1,1.7,2.1,3c0,2.4-1.7,3.4-3.9,3.4
			h-3.7V141.5z M380.2,146.5h0.3c1.2,0,1.7-0.3,1.7-1.6c0-1.2-0.7-1.6-1.7-1.6h-0.3V146.5z M380.2,151.6h0.5c1.3,0,2.4-0.2,2.4-1.7
			c0-1.6-1.3-1.6-2.5-1.6h-0.4V151.6z"/>
		<path class="st7" d="M392.2,149.4c0,1.1,0,2.1-0.7,3.1c-0.6,0.9-1.6,1.4-2.7,1.4c-0.9,0-1.8-0.5-2.4-1.1l1.5-1.7
			c0.1,0.4,0.5,0.8,0.9,0.8c1.2,0,1-2,1-2.7v-7.6h2.4V149.4z"/>
		<path class="st7" d="M397.2,143.5v2.7h3.7v2h-3.7v3.3h3.9v2h-6.2v-12.1h6.2v2H397.2z"/>
		<path class="st7" d="M411.7,144.7c-0.7-0.8-1.6-1.3-2.7-1.3c-2.3,0-3.6,2.1-3.6,4.2c0,2,1.3,4.1,3.5,4.1c1,0,2-0.5,2.7-1.3v2.8
			c-0.9,0.4-1.8,0.7-2.7,0.7c-3.4,0-5.9-2.9-5.9-6.3c0-3.4,2.4-6.5,6-6.5c0.9,0,1.9,0.3,2.7,0.7V144.7z"/>
		<path class="st7" d="M418.1,153.5h-2.4v-10h-2.4v-2h7.2v2h-2.4V153.5z"/>
		<path class="st7" d="M344.8,172.7H342l-2.9-4.9h0v4.9h-2.4v-12.1h3.2c2.4,0,4,1.1,4,3.6c0,1.5-0.8,3.1-2.5,3.3L344.8,172.7z
			 M339,166.2h0.3c1.3,0,2.2-0.4,2.2-1.9c0-1.5-0.9-1.8-2.2-1.8H339V166.2z"/>
		<path class="st7" d="M348.9,162.7v2.7h3.7v2h-3.7v3.3h3.9v2h-6.2v-12.1h6.2v2H348.9z"/>
		<path class="st7" d="M363.4,163.9c-0.7-0.8-1.6-1.3-2.7-1.3c-2.3,0-3.6,2.1-3.6,4.2c0,2,1.3,4.1,3.5,4.1c1,0,2-0.5,2.7-1.3v2.8
			c-0.9,0.4-1.8,0.7-2.7,0.7c-3.4,0-5.9-2.9-5.9-6.3c0-3.4,2.4-6.5,6-6.5c0.9,0,1.9,0.3,2.7,0.7V163.9z"/>
		<path class="st7" d="M371.3,173c-3.7,0-6-2.8-6-6.4c0-3.6,2.4-6.3,6-6.3c3.6,0,6,2.8,6,6.3C377.3,170.2,375,173,371.3,173z
			 M371.3,162.7c-2.2,0-3.5,2-3.5,3.9c0,1.9,0.9,4.1,3.5,4.1c2.6,0,3.5-2.3,3.5-4.1C374.8,164.6,373.5,162.7,371.3,162.7z"/>
		<path class="st7" d="M390,166.3v0.3c0,3.4-1.7,6.4-5.5,6.4c-3.5,0-5.7-3-5.7-6.3c0-3.4,2.3-6.4,5.9-6.4c2,0,3.8,1,4.8,2.9
			l-2.1,1.1c-0.5-1.1-1.5-1.9-2.8-1.9c-2.3,0-3.4,2.3-3.4,4.3c0,2,1.1,4.2,3.4,4.2c1.5,0,2.7-1.3,2.8-2.7h-2.6v-1.9H390z"/>
		<path class="st7" d="M392.2,160.3h1.7l6.4,8.4h0v-8.1h2.4V173h-1.7l-6.4-8.4h0v8.2h-2.4V160.3z"/>
		<path class="st7" d="M407.6,172.7h-2.4v-12.1h2.4V172.7z"/>
		<path class="st7" d="M414.2,172.7h-2.4v-10h-2.4v-2h7.2v2h-2.4V172.7z"/>
		<path class="st7" d="M420.8,172.7h-2.4v-12.1h2.4V172.7z"/>
		<path class="st7" d="M428.9,173c-3.7,0-6-2.8-6-6.4c0-3.6,2.4-6.3,6-6.3s6,2.8,6,6.3C434.8,170.2,432.6,173,428.9,173z
			 M428.9,162.7c-2.2,0-3.5,2-3.5,3.9c0,1.9,0.9,4.1,3.5,4.1s3.5-2.3,3.5-4.1C432.4,164.6,431.1,162.7,428.9,162.7z"/>
		<path class="st7" d="M437,160.3h1.7l6.4,8.4h0v-8.1h2.4V173h-1.7l-6.4-8.4h0v8.2H437V160.3z"/>
		<path class="st7" d="M348.5,189.4l-1,2.5h-2.5l4.7-12.4h1.8l4.6,12.4h-2.5l-0.9-2.5H348.5z M350.6,183.1L350.6,183.1l-1.4,4.4h2.9
			L350.6,183.1z"/>
		<path class="st7" d="M360.2,189.9h3.3v2h-5.7v-12.1h2.4V189.9z"/>
		<path class="st7" d="M375.9,185.5v0.3c0,3.4-1.7,6.4-5.5,6.4c-3.5,0-5.7-3-5.7-6.3c0-3.4,2.3-6.4,5.9-6.4c2,0,3.8,1,4.8,2.9
			l-2.1,1.1c-0.5-1.1-1.5-1.9-2.8-1.9c-2.3,0-3.4,2.3-3.4,4.3s1.1,4.2,3.4,4.2c1.5,0,2.7-1.3,2.8-2.7h-2.6v-1.9H375.9z"/>
		<path class="st7" d="M383.4,192.2c-3.7,0-6-2.8-6-6.4c0-3.6,2.4-6.3,6-6.3c3.6,0,6,2.8,6,6.3C389.4,189.4,387.1,192.2,383.4,192.2
			z M383.4,181.9c-2.2,0-3.5,2-3.5,3.9c0,1.9,0.9,4.1,3.5,4.1c2.6,0,3.5-2.3,3.5-4.1C387,183.8,385.6,181.9,383.4,181.9z"/>
		<path class="st7" d="M399.7,191.9h-2.8l-2.9-4.9h0v4.9h-2.4v-12.1h3.2c2.4,0,4,1.1,4,3.6c0,1.5-0.8,3.1-2.5,3.3L399.7,191.9z
			 M393.8,185.4h0.3c1.3,0,2.2-0.4,2.2-1.9c0-1.5-0.9-1.8-2.2-1.8h-0.3V185.4z"/>
		<path class="st7" d="M403.7,191.9h-2.4v-12.1h2.4V191.9z"/>
		<path class="st7" d="M410.3,191.9H408v-10h-2.4v-2h7.2v2h-2.4V191.9z"/>
		<path class="st7" d="M421.3,184.6v-4.8h2.4v12.1h-2.4v-5.4h-4.4v5.4h-2.4v-12.1h2.4v4.8H421.3z"/>
		<path class="st7" d="M435.3,184.4L435.3,184.4l-2.8,7.7h-0.8l-2.6-7.7h0l-1.1,7.5h-2.4l2-12.4h1.7l3,8l2.8-8h1.7l1.8,12.4h-2.4
			L435.3,184.4z"/>
	</g>
</g>
<g>
	<g>
		<path class="st19" d="M535.4,148.9l2.3-4.8l1.5,0.2l-1.7,4.9L535.4,148.9z M538.5,148.9l2.3-4.8l1.5,0.2l-1.7,4.9L538.5,148.9z"/>
		<path class="st19" d="M552.7,147.7c-0.7-0.8-1.6-1.3-2.7-1.3c-2.3,0-3.6,2.1-3.6,4.2c0,2,1.3,4.1,3.5,4.1c1,0,2-0.5,2.7-1.3v2.8
			c-0.9,0.4-1.8,0.7-2.7,0.7c-3.4,0-5.9-2.9-5.9-6.3c0-3.4,2.4-6.5,6-6.5c0.9,0,1.9,0.3,2.7,0.7V147.7z"/>
		<path class="st19" d="M557.6,154l-1,2.5h-2.5l4.7-12.4h1.8l4.6,12.4h-2.5l-0.9-2.5H557.6z M559.7,147.7L559.7,147.7l-1.4,4.4h2.9
			L559.7,147.7z"/>
		<path class="st19" d="M569.6,156.5h-2.4v-10h-2.4v-2h7.2v2h-2.4V156.5z"/>
		<path class="st19" d="M577.2,144.4l-2.3,4.8l-1.5-0.2l1.7-4.9L577.2,144.4z M580.3,144.4l-2.3,4.8l-1.5-0.2l1.7-4.9L580.3,144.4z"
			/>
	</g>
</g>
<g>
	<g>
		<path class="st20" d="M535.4,187.9l2.3-4.8l1.5,0.2l-1.7,4.9L535.4,187.9z M538.5,187.9l2.3-4.8l1.5,0.2l-1.7,4.9L538.5,187.9z"/>
		<path class="st20" d="M544.6,183.5h3.4c3.5,0,5.8,2.6,5.8,6.1c0,3.4-2.4,6-5.8,6h-3.3V183.5z M546.9,193.5h0.4c2.9,0,4-1.6,4-4
			c0-2.6-1.3-4-4-4h-0.4V193.5z"/>
		<path class="st20" d="M561.3,195.8c-3.7,0-6-2.8-6-6.4c0-3.6,2.4-6.3,6-6.3c3.6,0,6,2.8,6,6.3C567.2,193,565,195.8,561.3,195.8z
			 M561.3,185.5c-2.2,0-3.5,2-3.5,3.9c0,1.9,0.9,4.1,3.5,4.1c2.6,0,3.5-2.3,3.5-4.1C564.8,187.4,563.5,185.5,561.3,185.5z"/>
		<path class="st20" d="M580,189.1v0.3c0,3.4-1.7,6.4-5.5,6.4c-3.5,0-5.7-3-5.7-6.3c0-3.4,2.3-6.4,5.9-6.4c2,0,3.8,1,4.8,2.9
			l-2.1,1.1c-0.5-1.1-1.5-1.9-2.8-1.9c-2.3,0-3.4,2.3-3.4,4.3c0,2,1.1,4.2,3.4,4.2c1.5,0,2.7-1.3,2.8-2.7h-2.6v-1.9H580z"/>
		<path class="st20" d="M585.5,183.4l-2.3,4.8l-1.5-0.2l1.7-4.9L585.5,183.4z M588.6,183.4l-2.3,4.8l-1.5-0.2l1.7-4.9L588.6,183.4z"
			/>
	</g>
</g>
<g>
</g>
<g>
</g>
<g>
</g>
<g>
</g>
<g>
</g>
<g>
</g>
<g>
</g>
<g>
</g>
<g>
</g>
<g>
</g>
<g>
</g>
<g>
</g>
<g>
</g>
<g>
</g>
<g>
</g>
</svg>
